<svg data-v-fde0c5aa="" xmlns="http://www.w3.org/2000/svg" viewBox="0 0 300 300" class="iconLeftSlogan"><!----><defs data-v-fde0c5aa=""><linearGradient data-v-fde0c5aa="" gradientTransform="rotate(25)" id="d6f5ee71-2add-43a8-a93f-de8fcd24cf1c" x1="0%" y1="0%" x2="100%" y2="0%"><stop data-v-fde0c5aa="" offset="0%" stop-color="#4B279B" stop-opacity="1"></stop><stop data-v-fde0c5aa="" offset="100%" stop-color="#DF99D8" stop-opacity="1"></stop></linearGradient></defs><rect data-v-fde0c5aa="" fill="url(#d6f5ee71-2add-43a8-a93f-de8fcd24cf1c)" x="0" y="0" width="300px" height="300px" class="logo-background-square"></rect><defs data-v-fde0c5aa=""><!----></defs><g data-v-fde0c5aa="" id="33408404-2e01-4066-af76-da755f94e306" fill="#ffffff" transform="matrix(2.3989565123419596,0,0,2.3989565123419596,101.78882018447983,120.42174638729901)"><path d="M1.54 3.66L0.49 4.27L0.49 12.71L1.73 12.26L1.74 8.48L3.70 8.48L4.63 7.20L1.78 7.20L1.78 4.85L4.87 4.86L5.79 3.66L1.54 3.66ZM7.60 6.43L7.60 6.43L7.60 6.43Q6.69 6.36 5.67 6.88L5.67 6.88L5.67 6.88Q4.66 7.40 4.78 8.65L4.78 8.65L6.34 7.95L6.34 7.95Q6.23 7.10 6.97 6.96L6.97 6.96L6.97 6.96Q7.72 6.82 8.13 7.21L8.13 7.21L8.13 7.21Q8.55 7.61 8.49 8.80L8.49 8.80L8.49 8.80Q8.03 8.50 7.41 8.42L7.41 8.42L7.41 8.42Q6.79 8.33 5.78 8.85L5.78 8.85L5.78 8.85Q4.77 9.37 4.52 10.38L4.52 10.38L4.52 10.38Q4.27 11.38 5.05 12.06L5.05 12.06L5.05 12.06Q5.82 12.73 6.55 12.70L6.55 12.70L6.55 12.70Q7.27 12.67 7.64 12.39L7.64 12.39L7.64 12.39Q8.00 12.10 8.51 11.57L8.51 11.57L8.51 11.57Q8.50 12.44 8.71 12.76L8.71 12.76L10.06 12.04L10.06 12.04Q9.72 11.63 9.79 11.02L9.79 11.02L9.79 8.16L9.79 8.16Q9.82 7.49 9.17 6.99L9.17 6.99L9.17 6.99Q8.52 6.50 7.60 6.43ZM8.54 9.32L8.52 9.68L8.52 11.18L8.52 11.18Q7.36 12.11 6.42 11.55L6.42 11.55L6.42 11.55Q5.47 10.99 5.34 10.16L5.34 10.16L5.34 10.16Q5.22 9.34 6.16 9.31L6.16 9.31L6.16 9.31Q7.11 9.28 7.91 10.00L7.91 10.00L8.54 9.32ZM13.56 11.03L11.47 6.44L10.34 7.03L12.77 12.74L13.97 11.98L13.86 11.65L15.80 6.64L15.33 6.47L13.56 11.03ZM19.27 6.48L19.27 6.48L19.27 6.48Q18.16 6.51 17.45 7.03L17.45 7.03L17.45 7.03Q16.74 7.55 16.42 8.19L16.42 8.19L16.42 8.19Q16.10 8.84 16.07 9.76L16.07 9.76L16.07 9.76Q16.05 10.68 16.74 11.62L16.74 11.62L16.74 11.62Q17.43 12.56 18.44 12.71L18.44 12.71L18.44 12.71Q19.45 12.85 20.31 12.33L20.31 12.33L20.31 12.33Q21.16 11.80 21.60 11.12L21.60 11.12L21.60 11.12Q22.04 10.45 22.06 9.35L22.06 9.35L22.06 9.35Q22.07 8.26 21.23 7.36L21.23 7.36L21.23 7.36Q20.38 6.46 19.27 6.48ZM18.97 7.44L18.97 7.44L18.97 7.44Q20.02 7.82 20.44 8.91L20.44 8.91L20.44 8.91Q20.87 9.99 20.82 10.67L20.82 10.67L20.82 10.67Q20.76 11.34 20.19 11.71L20.19 11.71L20.19 11.71Q19.62 12.08 18.67 11.56L18.67 11.56L18.67 11.56Q17.73 11.05 17.42 9.91L17.42 9.91L17.42 9.91Q17.12 8.77 17.52 7.92L17.52 7.92L17.52 7.92Q17.93 7.07 18.97 7.44ZM26.63 12.70L27.89 12.19L27.89 6.49L26.56 7.03L26.56 11.16L26.56 11.16Q26.06 11.79 25.20 11.74L25.20 11.74L25.20 11.74Q24.34 11.69 24.25 10.73L24.25 10.73L24.26 6.51L22.96 7.17L22.96 10.96L22.96 10.96Q22.96 11.91 23.63 12.35L23.63 12.35L23.63 12.35Q24.29 12.80 24.91 12.68L24.91 12.68L24.91 12.68Q25.54 12.56 26.63 11.48L26.63 11.48L26.63 12.70ZM30.17 6.51L28.90 7.03L28.90 12.73L30.22 12.12L30.22 8.05L30.22 8.05Q30.86 7.22 31.45 7.37L31.45 7.37L31.45 7.37Q32.04 7.53 32.12 8.26L32.12 8.26L33.35 7.46L33.35 7.46Q33.21 6.62 32.19 6.50L32.19 6.50L32.19 6.50Q31.18 6.38 30.16 7.73L30.16 7.73L30.17 6.51ZM40.07 3.60L40.07 3.60L40.07 3.60Q39.45 3.74 38.93 4.17L38.93 4.17L38.93 4.17Q38.40 4.59 38.04 5.07L38.04 5.07L38.04 5.07Q37.68 5.54 37.66 6.29L37.66 6.29L37.66 6.29Q37.64 7.04 38.14 7.59L38.14 7.59L38.14 7.59Q38.65 8.14 40.09 8.56L40.09 8.56L40.09 8.56Q41.52 8.98 41.92 9.73L41.92 9.73L41.92 9.73Q42.32 10.49 41.85 11.05L41.85 11.05L41.85 11.05Q41.37 11.60 40.56 11.64L40.56 11.64L40.56 11.64Q39.76 11.68 39.07 11.15L39.07 11.15L39.07 11.15Q38.39 10.62 38.20 9.95L38.20 9.95L38.20 9.95Q38.01 9.27 38.03 8.95L38.03 8.95L36.97 9.98L36.97 9.98Q36.83 10.52 37.30 11.21L37.30 11.21L37.30 11.21Q37.76 11.91 38.59 12.37L38.59 12.37L38.59 12.37Q39.42 12.84 40.41 12.71L40.41 12.71L40.41 12.71Q41.41 12.59 42.30 11.34L42.30 11.34L42.30 11.34Q43.19 10.09 43.17 9.38L43.17 9.38L43.17 9.38Q43.16 8.66 42.63 8.12L42.63 8.12L42.63 8.12Q42.10 7.58 40.56 7.17L40.56 7.17L40.56 7.17Q39.03 6.76 38.88 5.92L38.88 5.92L38.88 5.92Q38.73 5.08 39.34 4.85L39.34 4.85L39.34 4.85Q39.96 4.61 40.76 4.96L40.76 4.96L40.76 4.96Q41.56 5.30 41.59 5.68L41.59 5.68L42.53 4.92L42.53 4.92Q42.36 4.22 41.52 3.84L41.52 3.84L41.52 3.84Q40.69 3.46 40.07 3.60ZM45.96 4.44L44.72 4.94L44.72 6.84L44.43 6.84L43.28 7.86L44.71 7.86L44.64 10.19L44.64 10.19Q44.65 11.87 45.52 12.42L45.52 12.42L45.52 12.42Q46.40 12.97 47.29 12.56L47.29 12.56L47.29 12.56Q48.19 12.15 48.51 11.09L48.51 11.09L48.41 10.93L48.41 10.93Q47.52 12.06 46.64 11.64L46.64 11.64L46.64 11.64Q45.77 11.22 45.92 9.78L45.92 9.78L45.96 7.85L46.81 7.85L48.88 6.79L45.95 6.79L45.96 4.44ZM52.31 6.48L52.31 6.48L52.31 6.48Q51.19 6.51 50.49 7.03L50.49 7.03L50.49 7.03Q49.78 7.55 49.46 8.19L49.46 8.19L49.46 8.19Q49.14 8.84 49.11 9.76L49.11 9.76L49.11 9.76Q49.09 10.68 49.78 11.62L49.78 11.62L49.78 11.62Q50.47 12.56 51.48 12.71L51.48 12.71L51.48 12.71Q52.49 12.85 53.34 12.33L53.34 12.33L53.34 12.33Q54.20 11.80 54.64 11.12L54.64 11.12L54.64 11.12Q55.08 10.45 55.09 9.35L55.09 9.35L55.09 9.35Q55.11 8.26 54.27 7.36L54.27 7.36L54.27 7.36Q53.42 6.46 52.31 6.48ZM52.01 7.44L52.01 7.44L52.01 7.44Q53.05 7.82 53.48 8.91L53.48 8.91L53.48 8.91Q53.91 9.99 53.85 10.67L53.85 10.67L53.85 10.67Q53.80 11.34 53.23 11.71L53.23 11.71L53.23 11.71Q52.66 12.08 51.71 11.56L51.71 11.56L51.71 11.56Q50.76 11.05 50.46 9.91L50.46 9.91L50.46 9.91Q50.16 8.77 50.56 7.92L50.56 7.92L50.56 7.92Q50.97 7.07 52.01 7.44ZM57.21 6.51L55.94 7.03L55.94 12.73L57.26 12.12L57.26 8.05L57.26 8.05Q57.91 7.22 58.50 7.37L58.50 7.37L58.50 7.37Q59.08 7.53 59.16 8.26L59.16 8.26L60.39 7.46L60.39 7.46Q60.25 6.62 59.24 6.50L59.24 6.50L59.24 6.50Q58.22 6.38 57.20 7.73L57.20 7.73L57.21 6.51ZM64.00 6.51L64.00 6.51L64.00 6.51Q62.92 6.35 61.98 7.19L61.98 7.19L61.98 7.19Q61.04 8.03 60.77 9.15L60.77 9.15L60.77 9.15Q60.51 10.27 60.86 11.09L60.86 11.09L60.86 11.09Q61.21 11.91 61.79 12.28L61.79 12.28L61.79 12.28Q62.37 12.66 63.16 12.71L63.16 12.71L63.16 12.71Q63.96 12.76 64.73 12.08L64.73 12.08L64.73 12.08Q65.50 11.41 65.95 10.54L65.95 10.54L65.86 10.47L65.86 10.47Q64.80 11.57 63.73 11.52L63.73 11.52L63.73 11.52Q62.65 11.47 62.31 10.85L62.31 10.85L64.25 9.78L64.25 9.78Q65.70 8.81 65.39 7.75L65.39 7.75L65.39 7.75Q65.08 6.68 64.00 6.51ZM61.78 8.16L61.78 8.16L61.78 8.16Q62.02 7.66 62.63 7.40L62.63 7.40L62.63 7.40Q63.25 7.14 63.79 7.68L63.79 7.68L63.79 7.68Q64.34 8.21 64.17 8.90L64.17 8.90L64.17 8.90Q64.00 9.60 62.10 10.57L62.10 10.57L62.10 10.57Q61.79 10.04 61.67 9.35L61.67 9.35L61.67 9.35Q61.54 8.67 61.78 8.16Z"></path></g><defs data-v-fde0c5aa=""><!----></defs><g data-v-fde0c5aa="" id="b67954bd-b687-43d4-b3cf-93e6439466e6" stroke="none" fill="#ffffff" transform="matrix(1.5613846530751756,0,0,1.5613846530751756,40,125.01784555079719)"><path d="M9.382 8.675h13.943v13.943L32 31.293V0H.707zM22.618 23.325H8.675V9.382L0 .707V32h31.293z"></path></g><defs data-v-fde0c5aa=""><!----></defs><g data-v-fde0c5aa="" id="c5fa1469-4e76-42e6-a52c-3651e1646093" fill="#ffffff" transform="matrix(0.37025367055788355,0,0,0.37025367055788355,102.86063787020804,159.81059551062984)"><path d="M0.28 13.33L0.28 13.33L0.28 13.33Q0.28 13.13 0.49 13.06L0.49 13.06L0.49 13.06Q0.94 12.89 1.27 12.31L1.27 12.31L1.27 12.31Q1.61 11.73 2.94 8.83L2.94 8.83L2.94 8.83Q4.31 5.87 5.36 3.63L5.36 3.63L5.36 3.63Q5.46 3.42 5.54 3.36L5.54 3.36L5.54 3.36Q5.61 3.30 5.78 3.30L5.78 3.30L5.78 3.30Q5.91 3.30 5.95 3.36L5.95 3.36L5.95 3.36Q5.99 3.42 6.13 3.82L6.13 3.82L6.13 3.82Q6.22 4.06 6.28 4.23L6.28 4.23L6.28 4.23Q6.34 4.40 6.48 4.77L6.48 4.77L6.48 4.77Q6.62 5.15 6.79 5.56L6.79 5.56L6.79 5.56Q7.24 6.66 8.34 9.22L8.34 9.22L8.34 9.22Q9.44 11.77 9.53 11.98L9.53 11.98L9.53 11.98Q9.77 12.46 10.07 12.71L10.07 12.71L10.07 12.71Q10.36 12.95 10.58 12.97L10.58 12.97L10.58 12.97Q10.79 12.99 10.94 13.04L10.94 13.04L10.94 13.04Q11.09 13.09 11.09 13.26L11.09 13.26L11.09 13.26Q11.09 13.47 10.71 13.47L10.71 13.47L10.71 13.47Q10.56 13.47 10.11 13.43L10.11 13.43L10.11 13.43Q9.66 13.38 9.45 13.38L9.45 13.38L9.45 13.38Q9.18 13.38 8.76 13.41L8.76 13.41L8.76 13.41Q8.34 13.44 8.15 13.44L8.15 13.44L8.15 13.44Q7.71 13.44 7.59 13.40L7.59 13.40L7.59 13.40Q7.48 13.37 7.48 13.24L7.48 13.24L7.48 13.24Q7.48 13.15 7.59 13.08L7.59 13.08L7.59 13.08Q7.70 13.02 7.83 13.00L7.83 13.00L7.83 13.00Q7.95 12.98 8.06 12.87L8.06 12.87L8.06 12.87Q8.18 12.77 8.18 12.59L8.18 12.59L8.18 12.59Q8.18 12.28 7.83 11.33L7.83 11.33L7.83 11.33Q7.48 10.37 7.24 9.93L7.24 9.93L7.24 9.93Q7.11 9.69 6.66 9.69L6.66 9.69L6.66 9.69Q6.59 9.69 6.05 9.70L6.05 9.70L6.05 9.70Q5.50 9.72 4.97 9.72L4.97 9.72L4.23 9.72L4.23 9.72Q3.60 9.72 3.44 9.79L3.44 9.79L3.44 9.79Q3.28 9.86 3.15 10.12L3.15 10.12L3.15 10.12Q3.07 10.30 2.87 10.70L2.87 10.70L2.87 10.70Q2.67 11.10 2.60 11.26L2.60 11.26L2.60 11.26Q2.53 11.41 2.43 11.65L2.43 11.65L2.43 11.65Q2.32 11.90 2.29 12.05L2.29 12.05L2.29 12.05Q2.25 12.19 2.25 12.31L2.25 12.31L2.25 12.31Q2.25 12.63 2.42 12.80L2.42 12.80L2.42 12.80Q2.58 12.96 2.77 12.98L2.77 12.98L2.77 12.98Q2.97 13.01 3.13 13.06L3.13 13.06L3.13 13.06Q3.29 13.12 3.29 13.26L3.29 13.26L3.29 13.26Q3.29 13.36 3.25 13.40L3.25 13.40L3.25 13.40Q3.21 13.45 3.05 13.45L3.05 13.45L3.05 13.45Q2.97 13.45 2.57 13.45L2.57 13.45L2.57 13.45Q2.17 13.44 1.89 13.44L1.89 13.44L1.89 13.44Q1.58 13.44 1.20 13.47L1.20 13.47L1.20 13.47Q0.81 13.50 0.69 13.50L0.69 13.50L0.69 13.50Q0.28 13.50 0.28 13.33ZM3.79 8.71L3.79 8.71L3.79 8.71Q3.79 8.89 3.92 8.93L3.92 8.93L3.92 8.93Q4.05 8.97 4.51 8.97L4.51 8.97L4.94 8.97L6.27 8.96L6.27 8.96Q6.82 8.96 6.82 8.74L6.82 8.74L6.82 8.74Q6.82 8.55 6.13 7.01L6.13 7.01L6.13 7.01Q5.45 5.46 5.26 5.46L5.26 5.46L5.26 5.46Q5.14 5.46 4.47 7.01L4.47 7.01L4.47 7.01Q3.79 8.55 3.79 8.71ZM28.97 8.83L28.97 8.83L28.97 8.83Q28.97 7.31 29.58 6.09L29.58 6.09L29.58 6.09Q30.18 4.87 31.44 4.12L31.44 4.12L31.44 4.12Q32.70 3.37 34.44 3.37L34.44 3.37L34.44 3.37Q35.11 3.37 35.70 3.48L35.70 3.48L35.70 3.48Q36.29 3.58 36.67 3.72L36.67 3.72L36.67 3.72Q37.04 3.86 37.32 4.01L37.32 4.01L37.32 4.01Q37.60 4.16 37.75 4.26L37.75 4.26L37.75 4.26Q37.90 4.37 37.93 4.37L37.93 4.37L37.93 4.37Q37.97 4.37 38.12 4.26L38.12 4.26L38.12 4.26Q38.26 4.16 38.32 4.16L38.32 4.16L38.32 4.16Q38.53 4.16 38.53 4.44L38.53 4.44L38.53 4.44Q38.54 4.84 38.59 5.29L38.59 5.29L38.59 5.29Q38.64 5.74 38.68 6.03L38.68 6.03L38.68 6.03Q38.72 6.33 38.72 6.38L38.72 6.38L38.72 6.38Q38.72 6.62 38.56 6.62L38.56 6.62L38.56 6.62Q38.39 6.62 38.32 6.45L38.32 6.45L38.32 6.45Q37.83 5.39 36.68 4.65L36.68 4.65L36.68 4.65Q35.53 3.92 34.31 3.92L34.31 3.92L34.31 3.92Q32.56 3.92 31.42 5.02L31.42 5.02L31.42 5.02Q30.28 6.12 30.28 8.06L30.28 8.06L30.28 8.06Q30.28 9.35 30.76 10.49L30.76 10.49L30.76 10.49Q31.23 11.62 32.21 12.36L32.21 12.36L32.21 12.36Q33.18 13.10 34.44 13.10L34.44 13.10L34.44 13.10Q35.52 13.10 36.39 12.61L36.39 12.61L36.39 12.61Q37.27 12.12 37.37 11.49L37.37 11.49L37.37 11.49Q37.41 11.16 37.41 9.73L37.41 9.73L37.41 9.73Q37.41 9.18 37.17 8.95L37.17 8.95L37.17 8.95Q37.00 8.78 36.55 8.72L36.55 8.72L36.55 8.72Q36.13 8.68 36.06 8.55L36.06 8.55L36.06 8.55Q36.04 8.50 36.04 8.41L36.04 8.41L36.04 8.41Q36.04 8.26 36.29 8.26L36.29 8.26L36.29 8.26Q36.47 8.26 37.07 8.29L37.07 8.29L37.07 8.29Q37.67 8.33 37.84 8.33L37.84 8.33L37.84 8.33Q38.12 8.33 38.44 8.32L38.44 8.32L38.44 8.32Q38.77 8.32 38.96 8.32L38.96 8.32L39.17 8.32L39.17 8.32Q39.40 8.32 39.40 8.44L39.40 8.44L39.40 8.44Q39.40 8.54 39.04 8.69L39.04 8.69L39.04 8.69Q38.68 8.85 38.64 9.09L38.64 9.09L38.64 9.09Q38.54 9.69 38.54 10.65L38.54 10.65L38.54 10.65Q38.54 11.07 38.56 11.40L38.56 11.40L38.56 11.40Q38.57 11.72 38.58 11.85L38.58 11.85L38.58 11.85Q38.58 11.98 38.60 12.08L38.60 12.08L38.60 12.08Q38.61 12.18 38.61 12.22L38.61 12.22L38.61 12.22Q38.61 12.29 38.51 12.33L38.51 12.33L38.51 12.33Q38.40 12.36 38.16 12.42L38.16 12.42L38.16 12.42Q37.93 12.49 37.73 12.60L37.73 12.60L37.63 12.66L37.63 12.66Q37.53 12.73 37.44 12.78L37.44 12.78L37.44 12.78Q37.34 12.84 37.18 12.92L37.18 12.92L37.18 12.92Q37.02 13.01 36.85 13.09L36.85 13.09L36.85 13.09Q36.68 13.17 36.47 13.26L36.47 13.26L36.47 13.26Q36.26 13.36 36.04 13.43L36.04 13.43L36.04 13.43Q35.81 13.50 35.57 13.55L35.57 13.55L35.57 13.55Q35.34 13.61 35.08 13.64L35.08 13.64L35.08 13.64Q34.82 13.68 34.57 13.68L34.57 13.68L34.57 13.68Q33.04 13.68 31.91 13.26L31.91 13.26L31.91 13.26Q30.79 12.85 30.17 12.14L30.17 12.14L30.17 12.14Q29.55 11.44 29.26 10.61L29.26 10.61L29.26 10.61Q28.97 9.79 28.97 8.83ZM47.08 13.33L47.08 13.33L47.08 13.33Q47.08 13.13 47.29 13.06L47.29 13.06L47.29 13.06Q47.74 12.89 48.08 12.31L48.08 12.31L48.08 12.31Q48.41 11.73 49.74 8.83L49.74 8.83L49.74 8.83Q51.11 5.87 52.16 3.63L52.16 3.63L52.16 3.63Q52.26 3.42 52.34 3.36L52.34 3.36L52.34 3.36Q52.42 3.30 52.58 3.30L52.58 3.30L52.58 3.30Q52.71 3.30 52.75 3.36L52.75 3.36L52.75 3.36Q52.79 3.42 52.93 3.82L52.93 3.82L52.93 3.82Q53.02 4.06 53.08 4.23L53.08 4.23L53.08 4.23Q53.14 4.40 53.28 4.77L53.28 4.77L53.28 4.77Q53.42 5.15 53.59 5.56L53.59 5.56L53.59 5.56Q54.04 6.66 55.14 9.22L55.14 9.22L55.14 9.22Q56.24 11.77 56.34 11.98L56.34 11.98L56.34 11.98Q56.57 12.46 56.87 12.71L56.87 12.71L56.87 12.71Q57.16 12.95 57.38 12.97L57.38 12.97L57.38 12.97Q57.60 12.99 57.74 13.04L57.74 13.04L57.74 13.04Q57.89 13.09 57.89 13.26L57.89 13.26L57.89 13.26Q57.89 13.47 57.51 13.47L57.51 13.47L57.51 13.47Q57.36 13.47 56.91 13.43L56.91 13.43L56.91 13.43Q56.46 13.38 56.25 13.38L56.25 13.38L56.25 13.38Q55.99 13.38 55.57 13.41L55.57 13.41L55.57 13.41Q55.15 13.44 54.95 13.44L54.95 13.44L54.95 13.44Q54.52 13.44 54.40 13.40L54.40 13.40L54.40 13.40Q54.28 13.37 54.28 13.24L54.28 13.24L54.28 13.24Q54.28 13.15 54.39 13.08L54.39 13.08L54.39 13.08Q54.50 13.02 54.63 13.00L54.63 13.00L54.63 13.00Q54.75 12.98 54.87 12.87L54.87 12.87L54.87 12.87Q54.98 12.77 54.98 12.59L54.98 12.59L54.98 12.59Q54.98 12.28 54.63 11.33L54.63 11.33L54.63 11.33Q54.28 10.37 54.04 9.93L54.04 9.93L54.04 9.93Q53.91 9.69 53.47 9.69L53.47 9.69L53.47 9.69Q53.40 9.69 52.85 9.70L52.85 9.70L52.85 9.70Q52.30 9.72 51.77 9.72L51.77 9.72L51.03 9.72L51.03 9.72Q50.40 9.72 50.24 9.79L50.24 9.79L50.24 9.79Q50.08 9.86 49.95 10.12L49.95 10.12L49.95 10.12Q49.87 10.30 49.67 10.70L49.67 10.70L49.67 10.70Q49.48 11.10 49.41 11.26L49.41 11.26L49.41 11.26Q49.34 11.41 49.23 11.65L49.23 11.65L49.23 11.65Q49.13 11.90 49.09 12.05L49.09 12.05L49.09 12.05Q49.06 12.19 49.06 12.31L49.06 12.31L49.06 12.31Q49.06 12.63 49.22 12.80L49.22 12.80L49.22 12.80Q49.38 12.96 49.57 12.98L49.57 12.98L49.57 12.98Q49.77 13.01 49.93 13.06L49.93 13.06L49.93 13.06Q50.09 13.12 50.09 13.26L50.09 13.26L50.09 13.26Q50.09 13.36 50.05 13.40L50.05 13.40L50.05 13.40Q50.01 13.45 49.85 13.45L49.85 13.45L49.85 13.45Q49.77 13.45 49.37 13.45L49.37 13.45L49.37 13.45Q48.97 13.44 48.69 13.44L48.69 13.44L48.69 13.44Q48.38 13.44 48.00 13.47L48.00 13.47L48.00 13.47Q47.61 13.50 47.49 13.50L47.49 13.50L47.49 13.50Q47.08 13.50 47.08 13.33ZM50.60 8.71L50.60 8.71L50.60 8.71Q50.60 8.89 50.72 8.93L50.72 8.93L50.72 8.93Q50.85 8.97 51.31 8.97L51.31 8.97L51.74 8.97L53.07 8.96L53.07 8.96Q53.62 8.96 53.62 8.74L53.62 8.74L53.62 8.74Q53.62 8.55 52.93 7.01L52.93 7.01L52.93 7.01Q52.25 5.46 52.07 5.46L52.07 5.46L52.07 5.46Q51.94 5.46 51.27 7.01L51.27 7.01L51.27 7.01Q50.60 8.55 50.60 8.71ZM65.45 3.64L65.45 3.64L65.45 3.64Q65.45 3.51 65.57 3.49L65.57 3.49L65.57 3.49Q65.69 3.47 66.16 3.47L66.16 3.47L67.38 3.47L67.38 3.47Q67.73 3.47 68.67 3.44L68.67 3.44L68.67 3.44Q69.61 3.42 70.11 3.42L70.11 3.42L70.11 3.42Q71.08 3.42 72.04 3.71L72.04 3.71L72.04 3.71Q73.01 4.00 73.82 4.56L73.82 4.56L73.82 4.56Q74.63 5.11 75.14 6.00L75.14 6.00L75.14 6.00Q75.64 6.89 75.64 7.98L75.64 7.98L75.64 7.98Q75.64 8.96 75.51 9.68L75.51 9.68L75.51 9.68Q75.38 10.40 75.07 10.93L75.07 10.93L75.07 10.93Q74.76 11.45 74.45 11.78L74.45 11.78L74.45 11.78Q74.14 12.11 73.61 12.56L73.61 12.56L73.61 12.56Q73.19 12.89 72.39 13.19L72.39 13.19L72.39 13.19Q71.60 13.48 70.76 13.48L70.76 13.48L70.76 13.48Q70.67 13.48 69.33 13.45L69.33 13.45L69.33 13.45Q67.98 13.41 67.40 13.41L67.40 13.41L67.40 13.41Q66.91 13.41 66.49 13.45L66.49 13.45L66.49 13.45Q66.07 13.48 66.00 13.48L66.00 13.48L66.00 13.48Q65.66 13.48 65.66 13.30L65.66 13.30L65.66 13.30Q65.66 13.19 65.71 13.14L65.71 13.14L65.71 13.14Q65.76 13.09 65.92 13.05L65.92 13.05L65.92 13.05Q66.08 13.01 66.15 12.98L66.15 12.98L66.15 12.98Q66.37 12.88 66.56 12.61L66.56 12.61L66.56 12.61Q66.75 12.33 66.75 12.07L66.75 12.07L66.75 12.07Q66.75 11.28 66.76 10.07L66.76 10.07L66.76 10.07Q66.77 8.85 66.77 8.27L66.77 8.27L66.77 8.27Q66.77 7.77 66.76 6.70L66.76 6.70L66.76 6.70Q66.75 5.63 66.75 4.72L66.75 4.72L66.75 4.72Q66.75 4.48 66.52 4.23L66.52 4.23L66.52 4.23Q66.29 3.99 66.01 3.98L66.01 3.98L66.01 3.98Q65.81 3.96 65.72 3.95L65.72 3.95L65.72 3.95Q65.63 3.93 65.54 3.86L65.54 3.86L65.54 3.86Q65.45 3.78 65.45 3.64ZM67.93 11.47L67.93 11.47L67.93 11.47Q67.93 11.73 67.94 11.90L67.94 11.90L67.94 11.90Q67.94 12.07 67.99 12.21L67.99 12.21L67.99 12.21Q68.04 12.35 68.07 12.40L68.07 12.40L68.07 12.40Q68.10 12.46 68.24 12.53L68.24 12.53L68.24 12.53Q68.38 12.60 68.45 12.62L68.45 12.62L68.45 12.62Q68.53 12.64 68.78 12.71L68.78 12.71L68.78 12.71Q69.03 12.78 69.20 12.82L69.20 12.82L69.20 12.82Q69.69 12.96 70.22 12.96L70.22 12.96L70.50 12.96L70.50 12.96Q71.46 12.96 72.13 12.69L72.13 12.69L72.13 12.69Q72.80 12.42 73.42 11.83L73.42 11.83L73.42 11.83Q74.45 10.84 74.45 8.61L74.45 8.61L74.45 8.61Q74.45 7.49 74.01 6.58L74.01 6.58L74.01 6.58Q73.57 5.67 72.86 5.13L72.86 5.13L72.86 5.13Q72.14 4.59 71.32 4.30L71.32 4.30L71.32 4.30Q70.49 4.02 69.65 4.02L69.65 4.02L69.65 4.02Q69.27 4.02 69.10 4.02L69.10 4.02L69.10 4.02Q68.92 4.02 68.69 4.05L68.69 4.05L68.69 4.05Q68.46 4.09 68.38 4.11L68.38 4.11L68.38 4.11Q68.31 4.13 68.19 4.25L68.19 4.25L68.19 4.25Q68.08 4.37 68.06 4.45L68.06 4.45L68.06 4.45Q68.04 4.54 68.00 4.78L68.00 4.78L68.00 4.78Q67.97 5.03 67.97 5.21L67.97 5.21L67.97 5.21Q67.97 5.39 67.97 5.80L67.97 5.80L67.97 5.80Q67.97 6.10 67.96 7.24L67.96 7.24L67.96 7.24Q67.94 8.39 67.94 8.48L67.94 8.48L67.94 8.48Q67.94 9.32 67.94 10.30L67.94 10.30L67.94 10.30Q67.93 11.28 67.93 11.47ZM83.87 8.83L83.87 8.83L83.87 8.83Q83.87 7.31 84.48 6.09L84.48 6.09L84.48 6.09Q85.09 4.87 86.35 4.12L86.35 4.12L86.35 4.12Q87.61 3.37 89.35 3.37L89.35 3.37L89.35 3.37Q90.02 3.37 90.61 3.48L90.61 3.48L90.61 3.48Q91.20 3.58 91.57 3.72L91.57 3.72L91.57 3.72Q91.95 3.86 92.23 4.01L92.23 4.01L92.23 4.01Q92.51 4.16 92.66 4.26L92.66 4.26L92.66 4.26Q92.81 4.37 92.83 4.37L92.83 4.37L92.83 4.37Q92.88 4.37 93.02 4.26L93.02 4.26L93.02 4.26Q93.17 4.16 93.23 4.16L93.23 4.16L93.23 4.16Q93.44 4.16 93.44 4.44L93.44 4.44L93.44 4.44Q93.45 4.84 93.50 5.29L93.50 5.29L93.50 5.29Q93.55 5.74 93.59 6.03L93.59 6.03L93.59 6.03Q93.63 6.33 93.63 6.38L93.63 6.38L93.63 6.38Q93.63 6.62 93.46 6.62L93.46 6.62L93.46 6.62Q93.30 6.62 93.23 6.45L93.23 6.45L93.23 6.45Q92.74 5.39 91.59 4.65L91.59 4.65L91.59 4.65Q90.44 3.92 89.22 3.92L89.22 3.92L89.22 3.92Q87.47 3.92 86.33 5.02L86.33 5.02L86.33 5.02Q85.19 6.12 85.19 8.06L85.19 8.06L85.19 8.06Q85.19 9.35 85.67 10.49L85.67 10.49L85.67 10.49Q86.14 11.62 87.12 12.36L87.12 12.36L87.12 12.36Q88.09 13.10 89.35 13.10L89.35 13.10L89.35 13.10Q90.43 13.10 91.30 12.61L91.30 12.61L91.30 12.61Q92.18 12.12 92.27 11.49L92.27 11.49L92.27 11.49Q92.32 11.16 92.32 9.73L92.32 9.73L92.32 9.73Q92.32 9.18 92.08 8.95L92.08 8.95L92.08 8.95Q91.91 8.78 91.46 8.72L91.46 8.72L91.46 8.72Q91.04 8.68 90.97 8.55L90.97 8.55L90.97 8.55Q90.94 8.50 90.94 8.41L90.94 8.41L90.94 8.41Q90.94 8.26 91.20 8.26L91.20 8.26L91.20 8.26Q91.38 8.26 91.98 8.29L91.98 8.29L91.98 8.29Q92.58 8.33 92.75 8.33L92.75 8.33L92.75 8.33Q93.03 8.33 93.35 8.32L93.35 8.32L93.35 8.32Q93.67 8.32 93.87 8.32L93.87 8.32L94.08 8.32L94.08 8.32Q94.30 8.32 94.30 8.44L94.30 8.44L94.30 8.44Q94.30 8.54 93.95 8.69L93.95 8.69L93.95 8.69Q93.59 8.85 93.55 9.09L93.55 9.09L93.55 9.09Q93.45 9.69 93.45 10.65L93.45 10.65L93.45 10.65Q93.45 11.07 93.46 11.40L93.46 11.40L93.46 11.40Q93.48 11.72 93.49 11.85L93.49 11.85L93.49 11.85Q93.49 11.98 93.51 12.08L93.51 12.08L93.51 12.08Q93.52 12.18 93.52 12.22L93.52 12.22L93.52 12.22Q93.52 12.29 93.42 12.33L93.42 12.33L93.42 12.33Q93.31 12.36 93.07 12.42L93.07 12.42L93.07 12.42Q92.83 12.49 92.64 12.60L92.64 12.60L92.54 12.66L92.54 12.66Q92.44 12.73 92.34 12.78L92.34 12.78L92.34 12.78Q92.25 12.84 92.09 12.92L92.09 12.92L92.09 12.92Q91.92 13.01 91.76 13.09L91.76 13.09L91.76 13.09Q91.59 13.17 91.38 13.26L91.38 13.26L91.38 13.26Q91.17 13.36 90.94 13.43L90.94 13.43L90.94 13.43Q90.72 13.50 90.48 13.55L90.48 13.55L90.48 13.55Q90.24 13.61 89.99 13.64L89.99 13.64L89.99 13.64Q89.73 13.68 89.47 13.68L89.47 13.68L89.47 13.68Q87.95 13.68 86.82 13.26L86.82 13.26L86.82 13.26Q85.69 12.85 85.08 12.14L85.08 12.14L85.08 12.14Q84.46 11.44 84.17 10.61L84.17 10.61L84.17 10.61Q83.87 9.79 83.87 8.83ZM101.99 3.65L101.99 3.65L101.99 3.65Q101.99 3.46 102.38 3.46L102.38 3.46L102.38 3.46Q102.44 3.46 102.56 3.47L102.56 3.47L102.56 3.47Q102.69 3.49 102.76 3.49L102.76 3.49L102.76 3.49Q102.80 3.49 104.08 3.52L104.08 3.52L104.08 3.52Q105.35 3.56 106.18 3.56L106.18 3.56L106.18 3.56Q106.47 3.56 107.63 3.53L107.63 3.53L107.63 3.53Q108.78 3.50 108.98 3.50L108.98 3.50L108.98 3.50Q109.24 3.50 109.24 3.82L109.24 3.82L109.24 3.82Q109.24 3.91 109.16 4.38L109.16 4.38L109.16 4.38Q109.07 4.84 109.07 5.25L109.07 5.25L109.07 5.25Q109.07 5.38 109.00 5.47L109.00 5.47L109.00 5.47Q108.93 5.56 108.85 5.56L108.85 5.56L108.85 5.56Q108.64 5.56 108.64 5.26L108.64 5.26L108.64 5.26Q108.64 4.89 108.40 4.58L108.40 4.58L108.40 4.58Q108.16 4.27 107.81 4.26L107.81 4.26L107.81 4.26Q106.55 4.16 105.88 4.16L105.88 4.16L105.52 4.16L105.52 4.16Q104.79 4.16 104.67 4.26L104.67 4.26L104.67 4.26Q104.55 4.37 104.52 5.01L104.52 5.01L104.52 5.01Q104.47 6.02 104.47 7.35L104.47 7.35L104.47 7.35Q104.47 8.05 104.73 8.06L104.73 8.06L105.08 8.06L105.67 8.06L106.11 8.06L106.11 8.06Q106.95 8.06 107.23 8.01L107.23 8.01L107.23 8.01Q107.51 7.95 107.73 7.80L107.73 7.80L107.73 7.80Q108.00 7.62 108.05 7.28L108.05 7.28L108.05 7.28Q108.09 7.04 108.25 7.04L108.25 7.04L108.25 7.04Q108.37 7.04 108.40 7.08L108.40 7.08L108.40 7.08Q108.43 7.13 108.43 7.27L108.43 7.27L108.43 7.27Q108.43 7.36 108.37 7.91L108.37 7.91L108.37 7.91Q108.32 8.46 108.32 8.74L108.32 8.74L108.32 8.74Q108.32 9.00 108.34 9.24L108.34 9.24L108.34 9.24Q108.36 9.48 108.36 9.59L108.36 9.59L108.36 9.59Q108.36 9.94 108.26 9.94L108.26 9.94L108.26 9.94Q108.05 9.94 107.95 9.60L107.95 9.60L107.95 9.60Q107.76 9.02 107.60 8.92L107.60 8.92L107.60 8.92Q107.31 8.72 106.26 8.72L106.26 8.72L106.26 8.72Q105.84 8.72 105.58 8.72L105.58 8.72L105.58 8.72Q105.32 8.72 105.25 8.71L105.25 8.71L105.25 8.71Q105.17 8.71 105.12 8.71L105.12 8.71L105.12 8.71Q105.07 8.71 105.03 8.71L105.03 8.71L105.03 8.71Q104.45 8.71 104.45 8.97L104.45 8.97L104.45 8.97Q104.45 9.38 104.44 9.99L104.44 9.99L104.44 9.99Q104.43 10.60 104.43 10.99L104.43 10.99L104.43 11.55L104.43 11.55Q104.43 12.56 104.76 12.66L104.76 12.66L104.76 12.66Q105.11 12.77 105.36 12.77L105.36 12.77L105.36 12.77Q106.41 12.77 107.21 12.67L107.21 12.67L107.21 12.67Q108.00 12.57 108.40 12.42L108.40 12.42L108.40 12.42Q108.79 12.28 109.06 12.10L109.06 12.10L109.06 12.10Q109.33 11.93 109.40 11.78L109.40 11.78L109.40 11.78Q109.48 11.63 109.56 11.54L109.56 11.54L109.56 11.54Q109.63 11.44 109.72 11.44L109.72 11.44L109.72 11.44Q109.89 11.44 109.89 11.68L109.89 11.68L109.89 11.68Q109.89 12.28 109.28 12.89L109.28 12.89L109.28 12.89Q108.68 13.51 108.23 13.51L108.23 13.51L108.23 13.51Q107.23 13.51 105.96 13.44L105.96 13.44L105.96 13.44Q104.69 13.37 104.38 13.37L104.38 13.37L104.38 13.37Q103.99 13.37 103.40 13.43L103.40 13.43L103.40 13.43Q102.82 13.50 102.48 13.50L102.48 13.50L102.48 13.50Q102.19 13.50 102.19 13.36L102.19 13.36L102.19 13.36Q102.19 13.23 102.19 13.19L102.19 13.19L102.19 13.19Q102.19 13.15 102.23 13.12L102.23 13.12L102.23 13.12Q102.27 13.09 102.32 13.08L102.32 13.08L102.32 13.08Q102.37 13.08 102.50 13.03L102.50 13.03L102.50 13.03Q102.63 12.99 102.79 12.92L102.79 12.92L102.79 12.92Q103.12 12.75 103.23 12.26L103.23 12.26L103.23 12.26Q103.33 11.77 103.33 10.21L103.33 10.21L103.33 8.47L103.33 8.47Q103.33 8.09 103.36 7.29L103.36 7.29L103.36 7.29Q103.38 6.50 103.38 6.05L103.38 6.05L103.38 6.05Q103.38 5.67 103.35 4.77L103.35 4.77L103.35 4.77Q103.33 4.37 103.00 4.14L103.00 4.14L103.00 4.14Q102.66 3.92 102.21 3.91L102.21 3.91L102.21 3.91Q101.99 3.91 101.99 3.65ZM117.45 5.32L117.45 5.32L117.45 5.32Q117.45 4.76 117.59 3.88L117.59 3.88L117.59 3.88Q117.59 3.85 117.59 3.78L117.59 3.78L117.59 3.78Q117.60 3.71 117.61 3.69L117.61 3.69L117.61 3.69Q117.61 3.67 117.62 3.62L117.62 3.62L117.62 3.62Q117.63 3.57 117.64 3.55L117.64 3.55L117.64 3.55Q117.66 3.53 117.68 3.49L117.68 3.49L117.68 3.49Q117.70 3.46 117.73 3.44L117.73 3.44L117.73 3.44Q117.75 3.43 117.80 3.42L117.80 3.42L117.80 3.42Q117.84 3.40 117.89 3.39L117.89 3.39L117.89 3.39Q117.95 3.39 118.02 3.39L118.02 3.39L118.02 3.39Q118.24 3.39 119.20 3.44L119.20 3.44L119.20 3.44Q120.16 3.50 121.97 3.50L121.97 3.50L121.97 3.50Q125.05 3.50 126.28 3.43L126.28 3.43L126.28 3.43Q126.29 3.43 126.33 3.42L126.33 3.42L126.33 3.42Q126.36 3.42 126.38 3.42L126.38 3.42L126.38 3.42Q126.53 3.42 126.59 3.50L126.59 3.50L126.59 3.50Q126.64 3.58 126.64 3.65L126.64 3.65L126.64 3.65Q126.64 3.75 126.69 4.24L126.69 4.24L126.69 4.24Q126.73 4.73 126.73 4.79L126.73 4.79L126.73 4.79Q126.73 5.14 126.69 5.23L126.69 5.23L126.69 5.23Q126.64 5.32 126.50 5.32L126.50 5.32L126.50 5.32Q126.39 5.32 126.35 5.15L126.35 5.15L126.35 5.15Q126.24 4.75 126.15 4.60L126.15 4.60L126.15 4.60Q126.07 4.45 125.79 4.34L125.79 4.34L125.79 4.34Q125.51 4.23 124.94 4.23L124.94 4.23L123.12 4.23L123.12 4.23Q122.78 4.23 122.70 4.36L122.70 4.36L122.70 4.36Q122.63 4.49 122.63 5.12L122.63 5.12L122.63 5.81L122.63 5.81Q122.63 7.69 122.61 9.11L122.61 9.11L122.61 9.11Q122.58 10.54 122.58 10.93L122.58 10.93L122.58 10.93Q122.58 11.13 122.58 11.43L122.58 11.43L122.58 11.43Q122.57 11.73 122.57 11.84L122.57 11.84L122.57 11.84Q122.57 12.45 122.77 12.64L122.77 12.64L122.77 12.64Q122.95 12.81 123.17 12.90L123.17 12.90L123.17 12.90Q123.40 12.99 123.56 13.01L123.56 13.01L123.56 13.01Q123.72 13.02 123.83 13.08L123.83 13.08L123.83 13.08Q123.94 13.13 123.94 13.26L123.94 13.26L123.94 13.26Q123.94 13.41 123.87 13.45L123.87 13.45L123.87 13.45Q123.80 13.50 123.61 13.50L123.61 13.50L123.61 13.50Q123.44 13.50 122.86 13.44L122.86 13.44L122.86 13.44Q122.29 13.38 122.05 13.38L122.05 13.38L122.05 13.38Q121.88 13.38 121.37 13.43L121.37 13.43L121.37 13.43Q120.86 13.48 120.62 13.48L120.62 13.48L120.62 13.48Q120.11 13.48 120.11 13.26L120.11 13.26L120.11 13.26Q120.11 13.12 120.19 13.07L120.19 13.07L120.19 13.07Q120.27 13.02 120.52 12.98L120.52 12.98L120.52 12.98Q120.76 12.95 120.83 12.94L120.83 12.94L120.83 12.94Q121.31 12.82 121.37 12.38L121.37 12.38L121.37 12.38Q121.51 11.14 121.51 7.08L121.51 7.08L121.49 4.58L121.49 4.58Q121.49 4.31 121.34 4.25L121.34 4.25L121.34 4.25Q121.18 4.19 120.43 4.19L120.43 4.19L120.43 4.19Q119.45 4.19 118.95 4.24L118.95 4.24L118.95 4.24Q118.45 4.30 118.37 4.35L118.37 4.35L118.37 4.35Q118.29 4.40 118.17 4.54L118.17 4.54L118.17 4.54Q118.05 4.70 117.97 4.91L117.97 4.91L117.97 4.91Q117.89 5.11 117.87 5.24L117.87 5.24L117.87 5.24Q117.85 5.38 117.79 5.47L117.79 5.47L117.79 5.47Q117.73 5.56 117.60 5.56L117.60 5.56L117.60 5.56Q117.45 5.56 117.45 5.32ZM144.82 10.82L144.82 10.82L144.82 10.82Q144.82 10.53 145.01 10.53L145.01 10.53L145.01 10.53Q145.19 10.53 145.24 10.67L145.24 10.67L145.24 10.67Q145.38 11.00 145.50 11.25L145.50 11.25L145.50 11.25Q145.61 11.49 145.88 11.85L145.88 11.85L145.88 11.85Q146.15 12.21 146.45 12.44L146.45 12.44L146.45 12.44Q146.76 12.67 147.25 12.84L147.25 12.84L147.25 12.84Q147.73 13.01 148.30 13.01L148.30 13.01L148.30 13.01Q149.35 13.01 149.99 12.45L149.99 12.45L149.99 12.45Q150.63 11.90 150.63 11.00L150.63 11.00L150.63 11.00Q150.63 10.35 150.19 9.90L150.19 9.90L150.19 9.90Q149.76 9.46 149.20 9.27L149.20 9.27L149.20 9.27Q148.64 9.09 147.78 8.77L147.78 8.77L147.78 8.77Q146.92 8.46 146.37 8.13L146.37 8.13L146.37 8.13Q145.10 7.38 145.10 6.08L145.10 6.08L145.10 6.08Q145.10 4.83 146.00 4.08L146.00 4.08L146.00 4.08Q146.90 3.33 148.34 3.33L148.34 3.33L148.34 3.33Q148.88 3.33 149.61 3.56L149.61 3.56L149.61 3.56Q150.35 3.79 150.36 3.79L150.36 3.79L150.36 3.79Q150.40 3.79 150.51 3.74L150.51 3.74L150.51 3.74Q150.63 3.68 150.68 3.68L150.68 3.68L150.68 3.68Q150.86 3.68 150.89 3.79L150.89 3.79L150.89 3.79Q151.19 5.49 151.19 5.70L151.19 5.70L151.19 5.70Q151.19 6.09 150.99 6.09L150.99 6.09L150.99 6.09Q150.86 6.09 150.79 5.89L150.79 5.89L150.79 5.89Q150.63 5.49 150.47 5.24L150.47 5.24L150.47 5.24Q150.30 4.98 150.23 4.91L150.23 4.91L150.23 4.91Q150.16 4.84 149.87 4.58L149.87 4.58L149.87 4.58Q149.11 3.91 148.04 3.91L148.04 3.91L148.04 3.91Q147.17 3.91 146.58 4.33L146.58 4.33L146.58 4.33Q145.99 4.75 145.99 5.46L145.99 5.46L145.99 5.46Q145.99 6.09 146.34 6.50L146.34 6.50L146.34 6.50Q146.68 6.90 147.25 7.13L147.25 7.13L147.25 7.13Q147.83 7.35 148.46 7.55L148.46 7.55L148.46 7.55Q149.09 7.74 149.79 8.09L149.79 8.09L149.79 8.09Q150.50 8.44 150.96 8.93L150.96 8.93L150.96 8.93Q151.52 9.53 151.52 10.43L151.52 10.43L151.52 10.43Q151.52 11.90 150.58 12.76L150.58 12.76L150.58 12.76Q149.65 13.62 148.26 13.62L148.26 13.62L148.26 13.62Q147.29 13.62 146.71 13.52L146.71 13.52L146.71 13.52Q146.12 13.41 145.50 13.09L145.50 13.09L145.50 13.09Q145.32 12.98 145.07 12.00L145.07 12.00L145.07 12.00Q144.82 11.02 144.82 10.82ZM159.61 5.32L159.61 5.32L159.61 5.32Q159.61 4.76 159.75 3.88L159.75 3.88L159.75 3.88Q159.75 3.85 159.76 3.78L159.76 3.78L159.76 3.78Q159.77 3.71 159.78 3.69L159.78 3.69L159.78 3.69Q159.78 3.67 159.79 3.62L159.79 3.62L159.79 3.62Q159.80 3.57 159.81 3.55L159.81 3.55L159.81 3.55Q159.82 3.53 159.84 3.49L159.84 3.49L159.84 3.49Q159.87 3.46 159.89 3.44L159.89 3.44L159.89 3.44Q159.92 3.43 159.96 3.42L159.96 3.42L159.96 3.42Q160.01 3.40 160.06 3.39L160.06 3.39L160.06 3.39Q160.12 3.39 160.19 3.39L160.19 3.39L160.19 3.39Q160.41 3.39 161.37 3.44L161.37 3.44L161.37 3.44Q162.33 3.50 164.14 3.50L164.14 3.50L164.14 3.50Q167.22 3.50 168.45 3.43L168.45 3.43L168.45 3.43Q168.46 3.43 168.50 3.42L168.50 3.42L168.50 3.42Q168.53 3.42 168.55 3.42L168.55 3.42L168.55 3.42Q168.70 3.42 168.76 3.50L168.76 3.50L168.76 3.50Q168.81 3.58 168.81 3.65L168.81 3.65L168.81 3.65Q168.81 3.75 168.85 4.24L168.85 4.24L168.85 4.24Q168.90 4.73 168.90 4.79L168.90 4.79L168.90 4.79Q168.90 5.14 168.85 5.23L168.85 5.23L168.85 5.23Q168.81 5.32 168.67 5.32L168.67 5.32L168.67 5.32Q168.56 5.32 168.52 5.15L168.52 5.15L168.52 5.15Q168.41 4.75 168.32 4.60L168.32 4.60L168.32 4.60Q168.24 4.45 167.96 4.34L167.96 4.34L167.96 4.34Q167.68 4.23 167.10 4.23L167.10 4.23L165.28 4.23L165.28 4.23Q164.95 4.23 164.87 4.36L164.87 4.36L164.87 4.36Q164.79 4.49 164.79 5.12L164.79 5.12L164.79 5.81L164.79 5.81Q164.79 7.69 164.77 9.11L164.77 9.11L164.77 9.11Q164.75 10.54 164.75 10.93L164.75 10.93L164.75 10.93Q164.75 11.13 164.75 11.43L164.75 11.43L164.75 11.43Q164.74 11.73 164.74 11.84L164.74 11.84L164.74 11.84Q164.74 12.45 164.93 12.64L164.93 12.64L164.93 12.64Q165.12 12.81 165.34 12.90L165.34 12.90L165.34 12.90Q165.56 12.99 165.72 13.01L165.72 13.01L165.72 13.01Q165.89 13.02 166.00 13.08L166.00 13.08L166.00 13.08Q166.11 13.13 166.11 13.26L166.11 13.26L166.11 13.26Q166.11 13.41 166.04 13.45L166.04 13.45L166.04 13.45Q165.97 13.50 165.77 13.50L165.77 13.50L165.77 13.50Q165.61 13.50 165.03 13.44L165.03 13.44L165.03 13.44Q164.46 13.38 164.22 13.38L164.22 13.38L164.22 13.38Q164.05 13.38 163.54 13.43L163.54 13.43L163.54 13.43Q163.03 13.48 162.79 13.48L162.79 13.48L162.79 13.48Q162.27 13.48 162.27 13.26L162.27 13.26L162.27 13.26Q162.27 13.12 162.36 13.07L162.36 13.07L162.36 13.07Q162.44 13.02 162.69 12.98L162.69 12.98L162.69 12.98Q162.93 12.95 163.00 12.94L163.00 12.94L163.00 12.94Q163.48 12.82 163.53 12.38L163.53 12.38L163.53 12.38Q163.67 11.14 163.67 7.08L163.67 7.08L163.66 4.58L163.66 4.58Q163.66 4.31 163.51 4.25L163.51 4.25L163.51 4.25Q163.35 4.19 162.60 4.19L162.60 4.19L162.60 4.19Q161.62 4.19 161.12 4.24L161.12 4.24L161.12 4.24Q160.62 4.30 160.54 4.35L160.54 4.35L160.54 4.35Q160.45 4.40 160.34 4.54L160.34 4.54L160.34 4.54Q160.22 4.70 160.14 4.91L160.14 4.91L160.14 4.91Q160.06 5.11 160.04 5.24L160.04 5.24L160.04 5.24Q160.02 5.38 159.96 5.47L159.96 5.47L159.96 5.47Q159.89 5.56 159.77 5.56L159.77 5.56L159.77 5.56Q159.61 5.56 159.61 5.32ZM176.79 8.69L176.79 8.69L176.79 8.69Q176.79 6.34 178.21 4.84L178.21 4.84L178.21 4.84Q179.62 3.33 182.21 3.33L182.21 3.33L182.21 3.33Q183.41 3.33 184.38 3.68L184.38 3.68L184.38 3.68Q185.35 4.03 185.91 4.54L185.91 4.54L185.91 4.54Q186.47 5.05 186.84 5.71L186.84 5.71L186.84 5.71Q187.22 6.37 187.36 6.92L187.36 6.92L187.36 6.92Q187.50 7.48 187.50 7.95L187.50 7.95L187.50 7.95Q187.50 9.86 186.76 11.16L186.76 11.16L186.76 11.16Q186.02 12.47 184.81 13.07L184.81 13.07L184.81 13.07Q183.60 13.66 182.01 13.66L182.01 13.66L182.01 13.66Q180.35 13.66 179.14 12.94L179.14 12.94L179.14 12.94Q177.93 12.21 177.36 11.10L177.36 11.10L177.36 11.10Q176.79 10.00 176.79 8.69ZM178.02 7.98L178.02 7.98L178.02 7.98Q178.02 8.54 178.18 9.19L178.18 9.19L178.18 9.19Q178.33 9.84 178.68 10.54L178.68 10.54L178.68 10.54Q179.03 11.23 179.53 11.78L179.53 11.78L179.53 11.78Q180.03 12.33 180.79 12.69L180.79 12.69L180.79 12.69Q181.55 13.05 182.46 13.05L182.46 13.05L182.46 13.05Q182.94 13.05 183.46 12.90L183.46 12.90L183.46 12.90Q183.99 12.75 184.51 12.45L184.51 12.45L184.51 12.45Q185.02 12.14 185.43 11.70L185.43 11.70L185.43 11.70Q185.84 11.26 186.10 10.62L186.10 10.62L186.10 10.62Q186.35 9.98 186.35 9.24L186.35 9.24L186.35 9.24Q186.35 6.71 185.02 5.30L185.02 5.30L185.02 5.30Q183.69 3.89 181.73 3.89L181.73 3.89L181.73 3.89Q180.19 3.89 179.11 4.93L179.11 4.93L179.11 4.93Q178.02 5.96 178.02 7.98ZM195.40 3.70L195.40 3.70L195.40 3.70Q195.40 3.47 195.80 3.47L195.80 3.47L198.13 3.47L198.13 3.47Q198.45 3.47 198.87 3.45L198.87 3.45L198.87 3.45Q199.29 3.43 199.53 3.43L199.53 3.43L199.53 3.43Q200.79 3.43 201.68 4.07L201.68 4.07L201.68 4.07Q202.58 4.70 202.58 5.78L202.58 5.78L202.58 5.78Q202.58 6.50 202.31 7.03L202.31 7.03L202.31 7.03Q202.03 7.57 201.71 7.81L201.71 7.81L201.71 7.81Q201.38 8.05 201.10 8.22L201.10 8.22L201.10 8.22Q200.83 8.40 200.83 8.46L200.83 8.46L200.83 8.46Q200.83 8.62 202.01 10.27L202.01 10.27L202.01 10.27Q203.18 11.91 203.62 12.38L203.62 12.38L203.62 12.38Q204.15 13.03 204.90 13.03L204.90 13.03L204.90 13.03Q205.10 13.03 205.10 13.20L205.10 13.20L205.10 13.20Q205.10 13.41 204.93 13.48L204.93 13.48L204.93 13.48Q204.76 13.55 204.06 13.55L204.06 13.55L204.06 13.55Q203.41 13.55 202.86 13.23L202.86 13.23L202.86 13.23Q202.16 12.82 200.49 10.09L200.49 10.09L200.49 10.09Q200.40 9.94 200.35 9.87L200.35 9.87L200.35 9.87Q199.68 8.78 199.32 8.78L199.32 8.78L199.02 8.78L198.17 8.78L198.17 8.78Q198.00 8.78 197.97 8.92L197.97 8.92L197.97 8.92Q197.93 9.06 197.93 9.77L197.93 9.77L197.93 9.77Q197.93 10.44 197.93 10.88L197.93 10.88L197.93 10.88Q197.93 11.31 197.94 11.43L197.94 11.43L197.94 11.43Q197.95 11.55 197.95 11.63L197.95 11.63L197.95 11.63Q197.95 11.70 197.95 11.75L197.95 11.75L197.95 11.75Q197.95 12.32 198.21 12.63L198.21 12.63L198.21 12.63Q198.48 12.95 198.81 13.00L198.81 13.00L198.81 13.00Q199.14 13.05 199.40 13.11L199.40 13.11L199.40 13.11Q199.67 13.17 199.67 13.31L199.67 13.31L199.67 13.31Q199.67 13.54 199.42 13.54L199.42 13.54L199.42 13.54Q199.40 13.54 198.45 13.49L198.45 13.49L198.45 13.49Q197.50 13.44 197.41 13.44L197.41 13.44L197.41 13.44Q197.01 13.44 196.45 13.47L196.45 13.47L196.45 13.47Q195.89 13.50 195.87 13.50L195.87 13.50L195.87 13.50Q195.58 13.50 195.58 13.27L195.58 13.27L195.58 13.27Q195.58 13.12 195.76 13.05L195.76 13.05L195.76 13.05Q195.94 12.99 196.17 12.96L196.17 12.96L196.17 12.96Q196.39 12.94 196.57 12.66L196.57 12.66L196.57 12.66Q196.76 12.38 196.76 11.86L196.76 11.86L196.76 11.86Q196.76 11.49 196.76 9.90L196.76 9.90L196.76 9.90Q196.77 8.30 196.77 7.45L196.77 7.45L196.77 7.45Q196.77 6.58 196.76 5.86L196.76 5.86L196.76 5.86Q196.76 5.14 196.76 5.08L196.76 5.08L196.76 5.08Q196.76 4.56 196.55 4.29L196.55 4.29L196.55 4.29Q196.34 4.02 196.08 3.98L196.08 3.98L196.08 3.98Q195.82 3.95 195.61 3.89L195.61 3.89L195.61 3.89Q195.40 3.84 195.40 3.70ZM197.93 5.54L197.93 5.94L197.93 5.94Q197.93 7.38 197.95 7.72L197.95 7.72L197.95 7.72Q197.96 8.06 198.04 8.12L198.04 8.12L198.04 8.12Q198.25 8.25 198.65 8.25L198.65 8.25L198.79 8.25L199.19 8.25L199.19 8.25Q200.38 8.25 200.89 7.70L200.89 7.70L200.89 7.70Q201.40 7.15 201.40 6.30L201.40 6.30L201.40 6.30Q201.40 5.43 200.73 4.72L200.73 4.72L200.73 4.72Q200.05 4.00 198.67 4.00L198.67 4.00L198.67 4.00Q198.16 4.00 198.04 4.28L198.04 4.28L198.04 4.28Q197.93 4.55 197.93 5.54L197.93 5.54ZM212.45 3.65L212.45 3.65L212.45 3.65Q212.45 3.46 212.84 3.46L212.84 3.46L212.84 3.46Q212.90 3.46 213.02 3.47L213.02 3.47L213.02 3.47Q213.15 3.49 213.22 3.49L213.22 3.49L213.22 3.49Q213.26 3.49 214.54 3.52L214.54 3.52L214.54 3.52Q215.81 3.56 216.64 3.56L216.64 3.56L216.64 3.56Q216.93 3.56 218.09 3.53L218.09 3.53L218.09 3.53Q219.24 3.50 219.44 3.50L219.44 3.50L219.44 3.50Q219.70 3.50 219.70 3.82L219.70 3.82L219.70 3.82Q219.70 3.91 219.62 4.38L219.62 4.38L219.62 4.38Q219.53 4.84 219.53 5.25L219.53 5.25L219.53 5.25Q219.53 5.38 219.46 5.47L219.46 5.47L219.46 5.47Q219.39 5.56 219.31 5.56L219.31 5.56L219.31 5.56Q219.10 5.56 219.10 5.26L219.10 5.26L219.10 5.26Q219.10 4.89 218.86 4.58L218.86 4.58L218.86 4.58Q218.62 4.27 218.27 4.26L218.27 4.26L218.27 4.26Q217.01 4.16 216.34 4.16L216.34 4.16L215.98 4.16L215.98 4.16Q215.25 4.16 215.13 4.26L215.13 4.26L215.13 4.26Q215.01 4.37 214.98 5.01L214.98 5.01L214.98 5.01Q214.93 6.02 214.93 7.35L214.93 7.35L214.93 7.35Q214.93 8.05 215.19 8.06L215.19 8.06L215.54 8.06L216.13 8.06L216.57 8.06L216.57 8.06Q217.41 8.06 217.69 8.01L217.69 8.01L217.69 8.01Q217.97 7.95 218.19 7.80L218.19 7.80L218.19 7.80Q218.46 7.62 218.51 7.28L218.51 7.28L218.51 7.28Q218.55 7.04 218.71 7.04L218.71 7.04L218.71 7.04Q218.83 7.04 218.86 7.08L218.86 7.08L218.86 7.08Q218.89 7.13 218.89 7.27L218.89 7.27L218.89 7.27Q218.89 7.36 218.83 7.91L218.83 7.91L218.83 7.91Q218.78 8.46 218.78 8.74L218.78 8.74L218.78 8.74Q218.78 9.00 218.80 9.24L218.80 9.24L218.80 9.24Q218.82 9.48 218.82 9.59L218.82 9.59L218.82 9.59Q218.82 9.94 218.72 9.94L218.72 9.94L218.72 9.94Q218.51 9.94 218.41 9.60L218.41 9.60L218.41 9.60Q218.22 9.02 218.06 8.92L218.06 8.92L218.06 8.92Q217.77 8.72 216.72 8.72L216.72 8.72L216.72 8.72Q216.30 8.72 216.04 8.72L216.04 8.72L216.04 8.72Q215.78 8.72 215.71 8.71L215.71 8.71L215.71 8.71Q215.63 8.71 215.58 8.71L215.58 8.71L215.58 8.71Q215.53 8.71 215.49 8.71L215.49 8.71L215.49 8.71Q214.91 8.71 214.91 8.97L214.91 8.97L214.91 8.97Q214.91 9.38 214.90 9.99L214.90 9.99L214.90 9.99Q214.89 10.60 214.89 10.99L214.89 10.99L214.89 11.55L214.89 11.55Q214.89 12.56 215.22 12.66L215.22 12.66L215.22 12.66Q215.57 12.77 215.82 12.77L215.82 12.77L215.82 12.77Q216.87 12.77 217.67 12.67L217.67 12.67L217.67 12.67Q218.46 12.57 218.86 12.42L218.86 12.42L218.86 12.42Q219.25 12.28 219.52 12.10L219.52 12.10L219.52 12.10Q219.79 11.93 219.86 11.78L219.86 11.78L219.86 11.78Q219.94 11.63 220.02 11.54L220.02 11.54L220.02 11.54Q220.09 11.44 220.18 11.44L220.18 11.44L220.18 11.44Q220.35 11.44 220.35 11.68L220.35 11.68L220.35 11.68Q220.35 12.28 219.74 12.89L219.74 12.89L219.74 12.89Q219.14 13.51 218.69 13.51L218.69 13.51L218.69 13.51Q217.69 13.51 216.42 13.44L216.42 13.44L216.42 13.44Q215.15 13.37 214.84 13.37L214.84 13.37L214.84 13.37Q214.45 13.37 213.86 13.43L213.86 13.43L213.86 13.43Q213.28 13.50 212.94 13.50L212.94 13.50L212.94 13.50Q212.65 13.50 212.65 13.36L212.65 13.36L212.65 13.36Q212.65 13.23 212.65 13.19L212.65 13.19L212.65 13.19Q212.65 13.15 212.69 13.12L212.69 13.12L212.69 13.12Q212.73 13.09 212.78 13.08L212.78 13.08L212.78 13.08Q212.83 13.08 212.96 13.03L212.96 13.03L212.96 13.03Q213.09 12.99 213.25 12.92L213.25 12.92L213.25 12.92Q213.58 12.75 213.69 12.26L213.69 12.26L213.69 12.26Q213.79 11.77 213.79 10.21L213.79 10.21L213.79 8.47L213.79 8.47Q213.79 8.09 213.82 7.29L213.82 7.29L213.82 7.29Q213.84 6.50 213.84 6.05L213.84 6.05L213.84 6.05Q213.84 5.67 213.81 4.77L213.81 4.77L213.81 4.77Q213.79 4.37 213.46 4.14L213.46 4.14L213.46 4.14Q213.12 3.92 212.67 3.91L212.67 3.91L212.67 3.91Q212.45 3.91 212.45 3.65ZM237.89 3.68L237.89 3.68L237.89 3.68Q237.89 3.64 237.91 3.60L237.91 3.60L237.91 3.60Q237.93 3.56 238.02 3.50L238.02 3.50L238.02 3.50Q238.11 3.44 238.25 3.44L238.25 3.44L238.63 3.44L238.63 3.44Q238.97 3.44 239.72 3.49L239.72 3.49L239.72 3.49Q240.46 3.53 241.67 3.53L241.67 3.53L241.67 3.53Q242.66 3.53 243.43 3.49L243.43 3.49L243.43 3.49Q244.20 3.46 244.85 3.46L244.85 3.46L244.85 3.46Q245.08 3.46 245.08 3.79L245.08 3.79L245.08 3.79Q245.08 3.92 245.06 4.11L245.06 4.11L245.06 4.11Q245.03 4.30 244.97 4.61L244.97 4.61L244.97 4.61Q244.92 4.93 244.89 5.22L244.89 5.22L244.89 5.22Q244.86 5.50 244.68 5.50L244.68 5.50L244.68 5.50Q244.48 5.50 244.48 5.22L244.48 5.22L244.48 5.22Q244.48 4.30 243.84 4.26L243.84 4.26L243.84 4.26Q241.72 4.09 241.32 4.09L241.32 4.09L241.32 4.09Q240.69 4.09 240.54 4.24L240.54 4.24L240.54 4.24Q240.39 4.40 240.38 4.87L240.38 4.87L240.38 4.87Q240.38 4.94 240.38 4.98L240.38 4.98L240.38 4.98Q240.34 5.74 240.34 7.32L240.34 7.32L240.34 7.32Q240.34 8.01 240.59 8.02L240.59 8.02L240.59 8.02Q240.66 8.02 240.78 8.03L240.78 8.03L240.78 8.03Q240.90 8.04 240.94 8.04L240.94 8.04L240.94 8.04Q241.04 8.04 241.23 8.03L241.23 8.03L241.23 8.03Q241.43 8.02 241.54 8.02L241.54 8.02L241.98 8.02L241.98 8.02Q242.82 8.02 243.09 7.97L243.09 7.97L243.09 7.97Q243.36 7.92 243.59 7.77L243.59 7.77L243.59 7.77Q243.71 7.69 243.78 7.57L243.78 7.57L243.78 7.57Q243.85 7.46 243.88 7.31L243.88 7.31L243.88 7.31Q243.91 7.15 243.95 7.08L243.95 7.08L243.95 7.08Q243.99 7.01 244.12 7.01L244.12 7.01L244.12 7.01Q244.24 7.01 244.27 7.06L244.27 7.06L244.27 7.06Q244.30 7.10 244.30 7.24L244.30 7.24L244.30 7.24Q244.30 7.34 244.24 7.73L244.24 7.73L244.24 7.73Q244.17 8.12 244.17 8.40L244.17 8.40L244.17 8.40Q244.17 8.67 244.22 9.05L244.22 9.05L244.22 9.05Q244.27 9.44 244.27 9.55L244.27 9.55L244.27 9.55Q244.27 9.77 244.22 9.83L244.22 9.83L244.22 9.83Q244.17 9.90 244.08 9.90L244.08 9.90L244.08 9.90Q243.84 9.90 243.78 9.55L243.78 9.55L243.78 9.55Q243.78 9.52 243.77 9.42L243.77 9.42L243.77 9.42Q243.75 9.32 243.75 9.28L243.75 9.28L243.75 9.28Q243.74 9.24 243.71 9.16L243.71 9.16L243.71 9.16Q243.68 9.09 243.66 9.04L243.66 9.04L243.66 9.04Q243.63 9.00 243.59 8.95L243.59 8.95L243.59 8.95Q243.54 8.90 243.47 8.88L243.47 8.88L243.47 8.88Q243.28 8.79 242.77 8.74L242.77 8.74L242.77 8.74Q242.27 8.68 242.12 8.68L242.12 8.68L240.90 8.68L240.90 8.68Q240.32 8.68 240.32 8.95L240.32 8.95L240.32 8.95Q240.32 9.35 240.31 9.96L240.31 9.96L240.31 9.96Q240.30 10.57 240.30 10.96L240.30 10.96L240.30 10.96Q240.30 11.06 240.29 11.25L240.29 11.25L240.29 11.25Q240.28 11.44 240.28 11.52L240.28 11.52L240.28 11.52Q240.28 11.80 240.34 12.08L240.34 12.08L240.34 12.08Q240.39 12.36 240.67 12.67L240.67 12.67L240.67 12.67Q240.94 12.98 241.40 12.98L241.40 12.98L241.40 12.98Q241.82 12.98 241.82 13.23L241.82 13.23L241.82 13.23Q241.82 13.27 241.79 13.33L241.79 13.33L241.79 13.33Q241.77 13.38 241.66 13.44L241.66 13.44L241.66 13.44Q241.56 13.50 241.39 13.50L241.39 13.50L241.39 13.50Q241.16 13.50 240.68 13.44L240.68 13.44L240.68 13.44Q240.20 13.38 240.03 13.38L240.03 13.38L240.03 13.38Q239.64 13.38 239.16 13.43L239.16 13.43L239.16 13.43Q238.67 13.47 238.34 13.47L238.34 13.47L238.34 13.47Q238.06 13.47 238.06 13.31L238.06 13.31L238.06 13.31Q238.06 13.13 238.12 13.09L238.12 13.09L238.12 13.09Q238.18 13.05 238.66 12.88L238.66 12.88L238.66 12.88Q239.02 12.75 239.11 12.13L239.11 12.13L239.11 12.13Q239.19 11.51 239.20 9.60L239.20 9.60L239.20 9.60Q239.20 8.86 239.20 8.44L239.20 8.44L239.20 8.44Q239.20 8.06 239.22 7.26L239.22 7.26L239.22 7.26Q239.25 6.45 239.25 6.01L239.25 6.01L239.25 5.19L239.25 5.19Q239.25 4.27 238.59 3.96L238.59 3.96L238.59 3.96Q238.49 3.92 238.35 3.90L238.35 3.90L238.35 3.90Q238.21 3.88 238.12 3.88L238.12 3.88L238.12 3.88Q238.03 3.88 237.96 3.83L237.96 3.83L237.96 3.83Q237.89 3.78 237.89 3.68ZM252.98 8.69L252.98 8.69L252.98 8.69Q252.98 6.34 254.39 4.84L254.39 4.84L254.39 4.84Q255.81 3.33 258.40 3.33L258.40 3.33L258.40 3.33Q259.60 3.33 260.57 3.68L260.57 3.68L260.57 3.68Q261.53 4.03 262.09 4.54L262.09 4.54L262.09 4.54Q262.65 5.05 263.03 5.71L263.03 5.71L263.03 5.71Q263.41 6.37 263.55 6.92L263.55 6.92L263.55 6.92Q263.69 7.48 263.69 7.95L263.69 7.95L263.69 7.95Q263.69 9.86 262.95 11.16L262.95 11.16L262.95 11.16Q262.21 12.47 261.00 13.07L261.00 13.07L261.00 13.07Q259.78 13.66 258.20 13.66L258.20 13.66L258.20 13.66Q256.54 13.66 255.33 12.94L255.33 12.94L255.33 12.94Q254.11 12.21 253.55 11.10L253.55 11.10L253.55 11.10Q252.98 10.00 252.98 8.69ZM254.21 7.98L254.21 7.98L254.21 7.98Q254.21 8.54 254.37 9.19L254.37 9.19L254.37 9.19Q254.52 9.84 254.87 10.54L254.87 10.54L254.87 10.54Q255.22 11.23 255.72 11.78L255.72 11.78L255.72 11.78Q256.21 12.33 256.98 12.69L256.98 12.69L256.98 12.69Q257.74 13.05 258.65 13.05L258.65 13.05L258.65 13.05Q259.13 13.05 259.65 12.90L259.65 12.90L259.65 12.90Q260.18 12.75 260.69 12.45L260.69 12.45L260.69 12.45Q261.21 12.14 261.62 11.70L261.62 11.70L261.62 11.70Q262.02 11.26 262.28 10.62L262.28 10.62L262.28 10.62Q262.54 9.98 262.54 9.24L262.54 9.24L262.54 9.24Q262.54 6.71 261.21 5.30L261.21 5.30L261.21 5.30Q259.88 3.89 257.92 3.89L257.92 3.89L257.92 3.89Q256.38 3.89 255.30 4.93L255.30 4.93L255.30 4.93Q254.21 5.96 254.21 7.98ZM271.59 3.70L271.59 3.70L271.59 3.70Q271.59 3.47 271.99 3.47L271.99 3.47L274.32 3.47L274.32 3.47Q274.64 3.47 275.06 3.45L275.06 3.45L275.06 3.45Q275.48 3.43 275.72 3.43L275.72 3.43L275.72 3.43Q276.98 3.43 277.87 4.07L277.87 4.07L277.87 4.07Q278.77 4.70 278.77 5.78L278.77 5.78L278.77 5.78Q278.77 6.50 278.50 7.03L278.50 7.03L278.50 7.03Q278.22 7.57 277.89 7.81L277.89 7.81L277.89 7.81Q277.56 8.05 277.29 8.22L277.29 8.22L277.29 8.22Q277.02 8.40 277.02 8.46L277.02 8.46L277.02 8.46Q277.02 8.62 278.19 10.27L278.19 10.27L278.19 10.27Q279.37 11.91 279.80 12.38L279.80 12.38L279.80 12.38Q280.34 13.03 281.09 13.03L281.09 13.03L281.09 13.03Q281.29 13.03 281.29 13.20L281.29 13.20L281.29 13.20Q281.29 13.41 281.12 13.48L281.12 13.48L281.12 13.48Q280.95 13.55 280.25 13.55L280.25 13.55L280.25 13.55Q279.59 13.55 279.05 13.23L279.05 13.23L279.05 13.23Q278.35 12.82 276.68 10.09L276.68 10.09L276.68 10.09Q276.58 9.94 276.54 9.87L276.54 9.87L276.54 9.87Q275.87 8.78 275.51 8.78L275.51 8.78L275.21 8.78L274.36 8.78L274.36 8.78Q274.19 8.78 274.15 8.92L274.15 8.92L274.15 8.92Q274.12 9.06 274.12 9.77L274.12 9.77L274.12 9.77Q274.12 10.44 274.12 10.88L274.12 10.88L274.12 10.88Q274.12 11.31 274.13 11.43L274.13 11.43L274.13 11.43Q274.13 11.55 274.13 11.63L274.13 11.63L274.13 11.63Q274.13 11.70 274.13 11.75L274.13 11.75L274.13 11.75Q274.13 12.32 274.40 12.63L274.40 12.63L274.40 12.63Q274.67 12.95 275.00 13.00L275.00 13.00L275.00 13.00Q275.32 13.05 275.59 13.11L275.59 13.11L275.59 13.11Q275.86 13.17 275.86 13.31L275.86 13.31L275.86 13.31Q275.86 13.54 275.60 13.54L275.60 13.54L275.60 13.54Q275.59 13.54 274.64 13.49L274.64 13.49L274.64 13.49Q273.69 13.44 273.60 13.44L273.60 13.44L273.60 13.44Q273.20 13.44 272.64 13.47L272.64 13.47L272.64 13.47Q272.08 13.50 272.06 13.50L272.06 13.50L272.06 13.50Q271.77 13.50 271.77 13.27L271.77 13.27L271.77 13.27Q271.77 13.12 271.95 13.05L271.95 13.05L271.95 13.05Q272.13 12.99 272.36 12.96L272.36 12.96L272.36 12.96Q272.58 12.94 272.76 12.66L272.76 12.66L272.76 12.66Q272.94 12.38 272.94 11.86L272.94 11.86L272.94 11.86Q272.94 11.49 272.95 9.90L272.95 9.90L272.95 9.90Q272.96 8.30 272.96 7.45L272.96 7.45L272.96 7.45Q272.96 6.58 272.95 5.86L272.95 5.86L272.95 5.86Q272.94 5.14 272.94 5.08L272.94 5.08L272.94 5.08Q272.94 4.56 272.73 4.29L272.73 4.29L272.73 4.29Q272.52 4.02 272.26 3.98L272.26 3.98L272.26 3.98Q272.01 3.95 271.80 3.89L271.80 3.89L271.80 3.89Q271.59 3.84 271.59 3.70ZM274.12 5.54L274.12 5.94L274.12 5.94Q274.12 7.38 274.13 7.72L274.13 7.72L274.13 7.72Q274.15 8.06 274.23 8.12L274.23 8.12L274.23 8.12Q274.44 8.25 274.83 8.25L274.83 8.25L274.97 8.25L275.38 8.25L275.38 8.25Q276.57 8.25 277.08 7.70L277.08 7.70L277.08 7.70Q277.59 7.15 277.59 6.30L277.59 6.30L277.59 6.30Q277.59 5.43 276.91 4.72L276.91 4.72L276.91 4.72Q276.23 4.00 274.86 4.00L274.86 4.00L274.86 4.00Q274.34 4.00 274.23 4.28L274.23 4.28L274.23 4.28Q274.12 4.55 274.12 5.54L274.12 5.54ZM298.62 3.65L298.62 3.65L298.62 3.65Q298.62 3.46 299.01 3.46L299.01 3.46L299.01 3.46Q299.07 3.46 299.19 3.47L299.19 3.47L299.19 3.47Q299.32 3.49 299.39 3.49L299.39 3.49L299.39 3.49Q299.43 3.49 300.71 3.52L300.71 3.52L300.71 3.52Q301.98 3.56 302.81 3.56L302.81 3.56L302.81 3.56Q303.10 3.56 304.26 3.53L304.26 3.53L304.26 3.53Q305.41 3.50 305.61 3.50L305.61 3.50L305.61 3.50Q305.87 3.50 305.87 3.82L305.87 3.82L305.87 3.82Q305.87 3.91 305.79 4.38L305.79 4.38L305.79 4.38Q305.70 4.84 305.70 5.25L305.70 5.25L305.70 5.25Q305.70 5.38 305.63 5.47L305.63 5.47L305.63 5.47Q305.56 5.56 305.48 5.56L305.48 5.56L305.48 5.56Q305.27 5.56 305.27 5.26L305.27 5.26L305.27 5.26Q305.27 4.89 305.03 4.58L305.03 4.58L305.03 4.58Q304.79 4.27 304.44 4.26L304.44 4.26L304.44 4.26Q303.18 4.16 302.51 4.16L302.51 4.16L302.15 4.16L302.15 4.16Q301.42 4.16 301.30 4.26L301.30 4.26L301.30 4.26Q301.18 4.37 301.15 5.01L301.15 5.01L301.15 5.01Q301.10 6.02 301.10 7.35L301.10 7.35L301.10 7.35Q301.10 8.05 301.36 8.06L301.36 8.06L301.71 8.06L302.30 8.06L302.74 8.06L302.74 8.06Q303.58 8.06 303.86 8.01L303.86 8.01L303.86 8.01Q304.14 7.95 304.36 7.80L304.36 7.80L304.36 7.80Q304.63 7.62 304.68 7.28L304.68 7.28L304.68 7.28Q304.72 7.04 304.88 7.04L304.88 7.04L304.88 7.04Q305.00 7.04 305.03 7.08L305.03 7.08L305.03 7.08Q305.06 7.13 305.06 7.27L305.06 7.27L305.06 7.27Q305.06 7.36 305.00 7.91L305.00 7.91L305.00 7.91Q304.95 8.46 304.95 8.74L304.95 8.74L304.95 8.74Q304.95 9.00 304.97 9.24L304.97 9.24L304.97 9.24Q304.99 9.48 304.99 9.59L304.99 9.59L304.99 9.59Q304.99 9.94 304.89 9.94L304.89 9.94L304.89 9.94Q304.68 9.94 304.58 9.60L304.58 9.60L304.58 9.60Q304.39 9.02 304.23 8.92L304.23 8.92L304.23 8.92Q303.94 8.72 302.89 8.72L302.89 8.72L302.89 8.72Q302.47 8.72 302.21 8.72L302.21 8.72L302.21 8.72Q301.95 8.72 301.88 8.71L301.88 8.71L301.88 8.71Q301.80 8.71 301.75 8.71L301.75 8.71L301.75 8.71Q301.70 8.71 301.66 8.71L301.66 8.71L301.66 8.71Q301.08 8.71 301.08 8.97L301.08 8.97L301.08 8.97Q301.08 9.38 301.07 9.99L301.07 9.99L301.07 9.99Q301.06 10.60 301.06 10.99L301.06 10.99L301.06 11.55L301.06 11.55Q301.06 12.56 301.39 12.66L301.39 12.66L301.39 12.66Q301.74 12.77 301.99 12.77L301.99 12.77L301.99 12.77Q303.04 12.77 303.84 12.67L303.84 12.67L303.84 12.67Q304.63 12.57 305.03 12.42L305.03 12.42L305.03 12.42Q305.42 12.28 305.69 12.10L305.69 12.10L305.69 12.10Q305.96 11.93 306.03 11.78L306.03 11.78L306.03 11.78Q306.11 11.63 306.19 11.54L306.19 11.54L306.19 11.54Q306.26 11.44 306.35 11.44L306.35 11.44L306.35 11.44Q306.52 11.44 306.52 11.68L306.52 11.68L306.52 11.68Q306.52 12.28 305.91 12.89L305.91 12.89L305.91 12.89Q305.31 13.51 304.86 13.51L304.86 13.51L304.86 13.51Q303.86 13.51 302.59 13.44L302.59 13.44L302.59 13.44Q301.32 13.37 301.01 13.37L301.01 13.37L301.01 13.37Q300.62 13.37 300.03 13.43L300.03 13.43L300.03 13.43Q299.45 13.50 299.11 13.50L299.11 13.50L299.11 13.50Q298.82 13.50 298.82 13.36L298.82 13.36L298.82 13.36Q298.82 13.23 298.82 13.19L298.82 13.19L298.82 13.19Q298.82 13.15 298.86 13.12L298.86 13.12L298.86 13.12Q298.90 13.09 298.95 13.08L298.95 13.08L298.95 13.08Q299.00 13.08 299.13 13.03L299.13 13.03L299.13 13.03Q299.26 12.99 299.42 12.92L299.42 12.92L299.42 12.92Q299.75 12.75 299.86 12.26L299.86 12.26L299.86 12.26Q299.96 11.77 299.96 10.21L299.96 10.21L299.96 8.47L299.96 8.47Q299.96 8.09 299.99 7.29L299.99 7.29L299.99 7.29Q300.01 6.50 300.01 6.05L300.01 6.05L300.01 6.05Q300.01 5.67 299.98 4.77L299.98 4.77L299.98 4.77Q299.96 4.37 299.63 4.14L299.63 4.14L299.63 4.14Q299.29 3.92 298.84 3.91L298.84 3.91L298.84 3.91Q298.62 3.91 298.62 3.65ZM314.08 3.70L314.08 3.70L314.08 3.70Q314.08 3.50 314.47 3.50L314.47 3.50L314.47 3.50Q314.54 3.50 315.01 3.53L315.01 3.53L315.01 3.53Q315.48 3.56 316.01 3.56L316.01 3.56L316.01 3.56Q316.13 3.56 316.45 3.54L316.45 3.54L316.45 3.54Q316.76 3.53 316.92 3.53L316.92 3.53L316.92 3.53Q317.24 3.53 317.31 3.56L317.31 3.56L317.31 3.56Q317.38 3.58 317.38 3.68L317.38 3.68L317.38 3.68Q317.38 3.77 317.24 3.84L317.24 3.84L317.24 3.84Q317.10 3.91 316.95 4.02L316.95 4.02L316.95 4.02Q316.81 4.14 316.81 4.34L316.81 4.34L316.81 4.34Q316.81 4.52 316.86 4.71L316.86 4.71L316.86 4.71Q316.90 4.90 317.07 5.29L317.07 5.29L317.07 5.29Q317.24 5.68 317.42 6.08L317.42 6.08L317.42 6.08Q317.59 6.47 317.99 7.34L317.99 7.34L317.99 7.34Q318.39 8.22 318.77 9.07L318.77 9.07L318.77 9.07Q319.94 11.77 320.17 11.77L320.17 11.77L320.17 11.77Q320.24 11.77 320.97 10.08L320.97 10.08L320.97 10.08Q321.71 8.39 322.42 6.54L322.42 6.54L322.42 6.54Q323.13 4.69 323.13 4.35L323.13 4.35L323.13 4.35Q323.13 4.13 322.97 4.01L322.97 4.01L322.97 4.01Q322.81 3.89 322.63 3.87L322.63 3.87L322.63 3.87Q322.45 3.85 322.29 3.80L322.29 3.80L322.29 3.80Q322.13 3.75 322.13 3.64L322.13 3.64L322.13 3.64Q322.13 3.54 322.18 3.52L322.18 3.52L322.18 3.52Q322.22 3.50 322.42 3.50L322.42 3.50L322.42 3.50Q322.46 3.50 322.74 3.51L322.74 3.51L322.74 3.51Q323.02 3.51 323.30 3.51L323.30 3.51L323.30 3.51Q323.55 3.51 323.87 3.50L323.87 3.50L323.87 3.50Q324.18 3.49 324.55 3.49L324.55 3.49L324.55 3.49Q324.81 3.49 324.81 3.68L324.81 3.68L324.81 3.68Q324.81 3.78 324.72 3.85L324.72 3.85L324.72 3.85Q324.63 3.92 324.51 3.98L324.51 3.98L324.51 3.98Q324.38 4.03 324.21 4.21L324.21 4.21L324.21 4.21Q324.04 4.40 323.92 4.69L323.92 4.69L320.80 11.80L320.80 11.80Q320.46 12.56 320.14 13.34L320.14 13.34L320.14 13.34Q319.98 13.72 319.94 13.79L319.94 13.79L319.94 13.79Q319.90 13.86 319.83 13.86L319.83 13.86L319.83 13.86Q319.58 13.86 319.20 12.89L319.20 12.89L319.20 12.89Q318.84 11.98 317.76 9.65L317.76 9.65L317.76 9.65Q317.23 8.48 316.79 7.50L316.79 7.50L316.79 7.50Q316.36 6.52 316.17 6.06L316.17 6.06L316.17 6.06Q315.98 5.60 315.82 5.24L315.82 5.24L315.82 5.24Q315.66 4.87 315.57 4.72L315.57 4.72L315.57 4.72Q315.49 4.56 315.38 4.44L315.38 4.44L315.38 4.44Q315.14 4.17 314.88 4.06L314.88 4.06L314.88 4.06Q314.62 3.95 314.46 3.96L314.46 3.96L314.46 3.96Q314.30 3.96 314.19 3.91L314.19 3.91L314.19 3.91Q314.08 3.86 314.08 3.70ZM332.37 3.65L332.37 3.65L332.37 3.65Q332.37 3.46 332.77 3.46L332.77 3.46L332.77 3.46Q332.82 3.46 332.95 3.47L332.95 3.47L332.95 3.47Q333.07 3.49 333.14 3.49L333.14 3.49L333.14 3.49Q333.19 3.49 334.46 3.52L334.46 3.52L334.46 3.52Q335.73 3.56 336.56 3.56L336.56 3.56L336.56 3.56Q336.85 3.56 338.01 3.53L338.01 3.53L338.01 3.53Q339.16 3.50 339.36 3.50L339.36 3.50L339.36 3.50Q339.63 3.50 339.63 3.82L339.63 3.82L339.63 3.82Q339.63 3.91 339.54 4.38L339.54 4.38L339.54 4.38Q339.46 4.84 339.46 5.25L339.46 5.25L339.46 5.25Q339.46 5.38 339.39 5.47L339.39 5.47L339.39 5.47Q339.32 5.56 339.23 5.56L339.23 5.56L339.23 5.56Q339.02 5.56 339.02 5.26L339.02 5.26L339.02 5.26Q339.02 4.89 338.79 4.58L338.79 4.58L338.79 4.58Q338.55 4.27 338.20 4.26L338.20 4.26L338.20 4.26Q336.94 4.16 336.27 4.16L336.27 4.16L335.90 4.16L335.90 4.16Q335.17 4.16 335.06 4.26L335.06 4.26L335.06 4.26Q334.94 4.37 334.91 5.01L334.91 5.01L334.91 5.01Q334.85 6.02 334.85 7.35L334.85 7.35L334.85 7.35Q334.85 8.05 335.12 8.06L335.12 8.06L335.47 8.06L336.06 8.06L336.49 8.06L336.49 8.06Q337.33 8.06 337.61 8.01L337.61 8.01L337.61 8.01Q337.89 7.95 338.11 7.80L338.11 7.80L338.11 7.80Q338.38 7.62 338.44 7.28L338.44 7.28L338.44 7.28Q338.48 7.04 338.63 7.04L338.63 7.04L338.63 7.04Q338.76 7.04 338.79 7.08L338.79 7.08L338.79 7.08Q338.81 7.13 338.81 7.27L338.81 7.27L338.81 7.27Q338.81 7.36 338.76 7.91L338.76 7.91L338.76 7.91Q338.70 8.46 338.70 8.74L338.70 8.74L338.70 8.74Q338.70 9.00 338.72 9.24L338.72 9.24L338.72 9.24Q338.74 9.48 338.74 9.59L338.74 9.59L338.74 9.59Q338.74 9.94 338.65 9.94L338.65 9.94L338.65 9.94Q338.44 9.94 338.34 9.60L338.34 9.60L338.34 9.60Q338.14 9.02 337.99 8.92L337.99 8.92L337.99 8.92Q337.69 8.72 336.64 8.72L336.64 8.72L336.64 8.72Q336.22 8.72 335.97 8.72L335.97 8.72L335.97 8.72Q335.71 8.72 335.63 8.71L335.63 8.71L335.63 8.71Q335.55 8.71 335.50 8.71L335.50 8.71L335.50 8.71Q335.45 8.71 335.41 8.71L335.41 8.71L335.41 8.71Q334.84 8.71 334.84 8.97L334.84 8.97L334.84 8.97Q334.84 9.38 334.82 9.99L334.82 9.99L334.82 9.99Q334.81 10.60 334.81 10.99L334.81 10.99L334.81 11.55L334.81 11.55Q334.81 12.56 335.15 12.66L335.15 12.66L335.15 12.66Q335.50 12.77 335.75 12.77L335.75 12.77L335.75 12.77Q336.80 12.77 337.59 12.67L337.59 12.67L337.59 12.67Q338.38 12.57 338.78 12.42L338.78 12.42L338.78 12.42Q339.18 12.28 339.44 12.10L339.44 12.10L339.44 12.10Q339.71 11.93 339.79 11.78L339.79 11.78L339.79 11.78Q339.86 11.63 339.94 11.54L339.94 11.54L339.94 11.54Q340.02 11.44 340.10 11.44L340.10 11.44L340.10 11.44Q340.27 11.44 340.27 11.68L340.27 11.68L340.27 11.68Q340.27 12.28 339.67 12.89L339.67 12.89L339.67 12.89Q339.07 13.51 338.62 13.51L338.62 13.51L338.62 13.51Q337.61 13.51 336.34 13.44L336.34 13.44L336.34 13.44Q335.08 13.37 334.77 13.37L334.77 13.37L334.77 13.37Q334.38 13.37 333.79 13.43L333.79 13.43L333.79 13.43Q333.20 13.50 332.86 13.50L332.86 13.50L332.86 13.50Q332.57 13.50 332.57 13.36L332.57 13.36L332.57 13.36Q332.57 13.23 332.57 13.19L332.57 13.19L332.57 13.19Q332.57 13.15 332.61 13.12L332.61 13.12L332.61 13.12Q332.65 13.09 332.70 13.08L332.70 13.08L332.70 13.08Q332.75 13.08 332.89 13.03L332.89 13.03L332.89 13.03Q333.02 12.99 333.17 12.92L333.17 12.92L333.17 12.92Q333.51 12.75 333.61 12.26L333.61 12.26L333.61 12.26Q333.72 11.77 333.72 10.21L333.72 10.21L333.72 8.47L333.72 8.47Q333.72 8.09 333.74 7.29L333.74 7.29L333.74 7.29Q333.76 6.50 333.76 6.05L333.76 6.05L333.76 6.05Q333.76 5.67 333.73 4.77L333.73 4.77L333.73 4.77Q333.72 4.37 333.38 4.14L333.38 4.14L333.38 4.14Q333.05 3.92 332.60 3.91L332.60 3.91L332.60 3.91Q332.37 3.91 332.37 3.65ZM347.83 3.70L347.83 3.70L347.83 3.70Q347.83 3.47 348.24 3.47L348.24 3.47L350.56 3.47L350.56 3.47Q350.88 3.47 351.30 3.45L351.30 3.45L351.30 3.45Q351.72 3.43 351.96 3.43L351.96 3.43L351.96 3.43Q353.22 3.43 354.12 4.07L354.12 4.07L354.12 4.07Q355.01 4.70 355.01 5.78L355.01 5.78L355.01 5.78Q355.01 6.50 354.74 7.03L354.74 7.03L354.74 7.03Q354.47 7.57 354.14 7.81L354.14 7.81L354.14 7.81Q353.81 8.05 353.54 8.22L353.54 8.22L353.54 8.22Q353.26 8.40 353.26 8.46L353.26 8.46L353.26 8.46Q353.26 8.62 354.44 10.27L354.44 10.27L354.44 10.27Q355.61 11.91 356.05 12.38L356.05 12.38L356.05 12.38Q356.58 13.03 357.34 13.03L357.34 13.03L357.34 13.03Q357.53 13.03 357.53 13.20L357.53 13.20L357.53 13.20Q357.53 13.41 357.36 13.48L357.36 13.48L357.36 13.48Q357.20 13.55 356.50 13.55L356.50 13.55L356.50 13.55Q355.84 13.55 355.29 13.23L355.29 13.23L355.29 13.23Q354.59 12.82 352.93 10.09L352.93 10.09L352.93 10.09Q352.83 9.94 352.79 9.87L352.79 9.87L352.79 9.87Q352.11 8.78 351.75 8.78L351.75 8.78L351.46 8.78L350.60 8.78L350.60 8.78Q350.43 8.78 350.40 8.92L350.40 8.92L350.40 8.92Q350.36 9.06 350.36 9.77L350.36 9.77L350.36 9.77Q350.36 10.44 350.36 10.88L350.36 10.88L350.36 10.88Q350.36 11.31 350.37 11.43L350.37 11.43L350.37 11.43Q350.38 11.55 350.38 11.63L350.38 11.63L350.38 11.63Q350.38 11.70 350.38 11.75L350.38 11.75L350.38 11.75Q350.38 12.32 350.64 12.63L350.64 12.63L350.64 12.63Q350.91 12.95 351.24 13.00L351.24 13.00L351.24 13.00Q351.57 13.05 351.83 13.11L351.83 13.11L351.83 13.11Q352.10 13.17 352.10 13.31L352.10 13.31L352.10 13.31Q352.10 13.54 351.85 13.54L351.85 13.54L351.85 13.54Q351.83 13.54 350.88 13.49L350.88 13.49L350.88 13.49Q349.93 13.44 349.85 13.44L349.85 13.44L349.85 13.44Q349.44 13.44 348.88 13.47L348.88 13.47L348.88 13.47Q348.32 13.50 348.31 13.50L348.31 13.50L348.31 13.50Q348.01 13.50 348.01 13.27L348.01 13.27L348.01 13.27Q348.01 13.12 348.19 13.05L348.19 13.05L348.19 13.05Q348.38 12.99 348.60 12.96L348.60 12.96L348.60 12.96Q348.82 12.94 349.01 12.66L349.01 12.66L349.01 12.66Q349.19 12.38 349.19 11.86L349.19 11.86L349.19 11.86Q349.19 11.49 349.20 9.90L349.20 9.90L349.20 9.90Q349.20 8.30 349.20 7.45L349.20 7.45L349.20 7.45Q349.20 6.58 349.20 5.86L349.20 5.86L349.20 5.86Q349.19 5.14 349.19 5.08L349.19 5.08L349.19 5.08Q349.19 4.56 348.98 4.29L348.98 4.29L348.98 4.29Q348.77 4.02 348.51 3.98L348.51 3.98L348.51 3.98Q348.25 3.95 348.04 3.89L348.04 3.89L348.04 3.89Q347.83 3.84 347.83 3.70ZM350.36 5.54L350.36 5.94L350.36 5.94Q350.36 7.38 350.38 7.72L350.38 7.72L350.38 7.72Q350.39 8.06 350.48 8.12L350.48 8.12L350.48 8.12Q350.69 8.25 351.08 8.25L351.08 8.25L351.22 8.25L351.62 8.25L351.62 8.25Q352.81 8.25 353.33 7.70L353.33 7.70L353.33 7.70Q353.84 7.15 353.84 6.30L353.84 6.30L353.84 6.30Q353.84 5.43 353.16 4.72L353.16 4.72L353.16 4.72Q352.48 4.00 351.11 4.00L351.11 4.00L351.11 4.00Q350.59 4.00 350.48 4.28L350.48 4.28L350.48 4.28Q350.36 4.55 350.36 5.54L350.36 5.54ZM363.05 3.81L363.05 3.81L363.05 3.81Q363.05 3.65 363.21 3.61L363.21 3.61L363.21 3.61Q363.37 3.57 363.92 3.57L363.92 3.57L363.92 3.57Q364.00 3.57 364.30 3.58L364.30 3.58L364.30 3.58Q364.60 3.60 364.73 3.60L364.73 3.60L364.73 3.60Q364.88 3.60 365.30 3.59L365.30 3.59L365.30 3.59Q365.71 3.58 365.92 3.58L365.92 3.58L365.92 3.58Q366.62 3.58 366.62 3.75L366.62 3.75L366.62 3.75Q366.62 3.91 366.32 4.01L366.32 4.01L366.32 4.01Q366.03 4.12 366.03 4.24L366.03 4.24L366.03 4.24Q366.03 4.38 366.12 4.61L366.12 4.61L366.12 4.61Q366.21 4.83 366.30 4.97L366.30 4.97L366.30 4.97Q366.39 5.11 366.58 5.38L366.58 5.38L366.58 5.38Q366.76 5.64 366.79 5.70L366.79 5.70L366.79 5.70Q367.26 6.45 367.77 7.14L367.77 7.14L367.77 7.14Q368.28 7.83 368.35 7.83L368.35 7.83L368.35 7.83Q368.44 7.83 368.56 7.66L368.56 7.66L368.56 7.66Q368.69 7.50 368.91 7.13L368.91 7.13L368.91 7.13Q369.14 6.75 369.29 6.52L369.29 6.52L369.29 6.52Q369.33 6.45 369.50 6.22L369.50 6.22L369.50 6.22Q369.66 5.98 369.72 5.88L369.72 5.88L369.72 5.88Q369.78 5.78 369.91 5.58L369.91 5.58L369.91 5.58Q370.03 5.38 370.09 5.27L370.09 5.27L370.09 5.27Q370.15 5.17 370.22 5.02L370.22 5.02L370.22 5.02Q370.30 4.87 370.33 4.77L370.33 4.77L370.33 4.77Q370.36 4.68 370.36 4.59L370.36 4.59L370.36 4.59Q370.36 4.14 369.88 4.03L369.88 4.03L369.88 4.03Q369.82 4.02 369.72 4.00L369.72 4.00L369.72 4.00Q369.61 3.99 369.57 3.98L369.57 3.98L369.57 3.98Q369.52 3.96 369.45 3.93L369.45 3.93L369.45 3.93Q369.38 3.91 369.35 3.86L369.35 3.86L369.35 3.86Q369.32 3.81 369.32 3.74L369.32 3.74L369.32 3.74Q369.32 3.57 369.71 3.57L369.71 3.57L369.71 3.57Q369.78 3.57 369.97 3.58L369.97 3.58L369.97 3.58Q370.16 3.58 370.29 3.58L370.29 3.58L370.29 3.58Q370.61 3.58 371.06 3.59L371.06 3.59L371.06 3.59Q371.52 3.60 371.77 3.60L371.77 3.60L371.77 3.60Q372.46 3.60 372.46 3.81L372.46 3.81L372.46 3.81Q372.46 3.86 372.37 3.91L372.37 3.91L372.37 3.91Q372.29 3.95 372.13 4.02L372.13 4.02L372.13 4.02Q371.98 4.09 371.85 4.19L371.85 4.19L371.85 4.19Q371.28 4.63 370.17 6.31L370.17 6.31L370.17 6.31Q369.05 7.99 368.90 8.19L368.90 8.19L368.90 8.19Q368.68 8.47 368.62 8.81L368.62 8.81L368.62 8.81Q368.56 9.14 368.56 9.95L368.56 9.95L368.56 9.95Q368.56 10.14 368.57 10.73L368.57 10.73L368.57 10.73Q368.58 11.33 368.58 11.58L368.58 11.58L368.58 11.91L368.58 11.91Q368.58 12.38 368.74 12.64L368.74 12.64L368.74 12.64Q368.90 12.91 369.04 12.96L369.04 12.96L369.04 12.96Q369.18 13.01 369.32 13.01L369.32 13.01L369.32 13.01Q369.35 13.01 369.46 13.01L369.46 13.01L369.46 13.01Q369.57 13.02 369.60 13.02L369.60 13.02L369.60 13.02Q369.70 13.02 369.75 13.08L369.75 13.08L369.75 13.08Q369.81 13.15 369.81 13.22L369.81 13.22L369.81 13.22Q369.81 13.36 369.74 13.40L369.74 13.40L369.74 13.40Q369.67 13.44 369.47 13.44L369.47 13.44L369.47 13.44Q369.40 13.44 368.87 13.43L368.87 13.43L368.87 13.43Q368.33 13.43 368.07 13.43L368.07 13.43L368.07 13.43Q367.58 13.43 367.18 13.45L367.18 13.45L367.18 13.45Q366.77 13.48 366.53 13.48L366.53 13.48L366.53 13.48Q366.14 13.48 366.14 13.33L366.14 13.33L366.14 13.33Q366.14 13.20 366.22 13.15L366.22 13.15L366.22 13.15Q366.30 13.10 366.48 13.09L366.48 13.09L366.48 13.09Q366.66 13.08 366.74 13.05L366.74 13.05L366.74 13.05Q367.33 12.87 367.33 12.19L367.33 12.19L367.33 12.19Q367.33 12.11 367.34 11.92L367.34 11.92L367.34 11.92Q367.35 11.73 367.35 11.12L367.35 11.12L367.35 11.12Q367.36 10.50 367.36 9.35L367.36 9.35L367.36 9.35Q367.36 9.13 367.33 8.97L367.33 8.97L367.33 8.97Q367.29 8.81 367.24 8.65L367.24 8.65L367.24 8.65Q367.19 8.50 367.00 8.20L367.00 8.20L367.00 8.20Q366.81 7.91 366.63 7.64L366.63 7.64L366.63 7.64Q366.45 7.36 366.01 6.72L366.01 6.72L366.01 6.72Q365.57 6.08 365.16 5.46L365.16 5.46L365.16 5.46Q364.73 4.80 364.38 4.46L364.38 4.46L364.38 4.46Q364.03 4.12 363.84 4.05L363.84 4.05L363.84 4.05Q363.65 3.99 363.40 3.99L363.40 3.99L363.40 3.99Q363.05 3.99 363.05 3.81ZM379.95 8.69L379.95 8.69L379.95 8.69Q379.95 6.34 381.36 4.84L381.36 4.84L381.36 4.84Q382.77 3.33 385.36 3.33L385.36 3.33L385.36 3.33Q386.57 3.33 387.53 3.68L387.53 3.68L387.53 3.68Q388.50 4.03 389.06 4.54L389.06 4.54L389.06 4.54Q389.62 5.05 390.00 5.71L390.00 5.71L390.00 5.71Q390.38 6.37 390.52 6.92L390.52 6.92L390.52 6.92Q390.66 7.48 390.66 7.95L390.66 7.95L390.66 7.95Q390.66 9.86 389.91 11.16L389.91 11.16L389.91 11.16Q389.17 12.47 387.96 13.07L387.96 13.07L387.96 13.07Q386.75 13.66 385.17 13.66L385.17 13.66L385.17 13.66Q383.50 13.66 382.29 12.94L382.29 12.94L382.29 12.94Q381.08 12.21 380.51 11.10L380.51 11.10L380.51 11.10Q379.95 10.00 379.95 8.69ZM381.18 7.98L381.18 7.98L381.18 7.98Q381.18 8.54 381.33 9.19L381.33 9.19L381.33 9.19Q381.49 9.84 381.84 10.54L381.84 10.54L381.84 10.54Q382.19 11.23 382.68 11.78L382.68 11.78L382.68 11.78Q383.18 12.33 383.94 12.69L383.94 12.69L383.94 12.69Q384.71 13.05 385.62 13.05L385.62 13.05L385.62 13.05Q386.09 13.05 386.62 12.90L386.62 12.90L386.62 12.90Q387.14 12.75 387.66 12.45L387.66 12.45L387.66 12.45Q388.18 12.14 388.58 11.70L388.58 11.70L388.58 11.70Q388.99 11.26 389.25 10.62L389.25 10.62L389.25 10.62Q389.51 9.98 389.51 9.24L389.51 9.24L389.51 9.24Q389.51 6.71 388.18 5.30L388.18 5.30L388.18 5.30Q386.85 3.89 384.89 3.89L384.89 3.89L384.89 3.89Q383.35 3.89 382.26 4.93L382.26 4.93L382.26 4.93Q381.18 5.96 381.18 7.98ZM398.34 3.77L398.34 3.77L398.34 3.77Q398.34 3.68 398.44 3.60L398.44 3.60L398.44 3.60Q398.54 3.53 398.69 3.53L398.69 3.53L398.69 3.53Q398.78 3.53 398.97 3.54L398.97 3.54L398.97 3.54Q399.17 3.54 399.22 3.54L399.22 3.54L399.22 3.54Q399.43 3.54 399.62 3.53L399.62 3.53L399.62 3.53Q399.80 3.51 399.91 3.51L399.91 3.51L399.91 3.51Q400.04 3.51 400.20 3.59L400.20 3.59L400.20 3.59Q400.37 3.67 400.40 3.75L400.40 3.75L400.40 3.75Q400.43 3.79 400.55 3.94L400.55 3.94L400.55 3.94Q400.68 4.09 400.89 4.33L400.89 4.33L400.89 4.33Q401.10 4.56 401.27 4.79L401.27 4.79L401.27 4.79Q403.17 7.27 406.36 10.77L406.36 10.77L406.36 10.77Q406.45 10.86 406.57 10.99L406.57 10.99L406.57 10.99Q406.69 11.12 406.74 11.18L406.74 11.18L406.74 11.18Q406.78 11.24 406.84 11.30L406.84 11.30L406.84 11.30Q406.90 11.35 406.93 11.38L406.93 11.38L406.93 11.38Q406.97 11.40 406.99 11.40L406.99 11.40L406.99 11.40Q407.13 11.40 407.13 10.53L407.13 10.53L407.13 8.89L407.13 8.89Q407.13 7.95 407.13 7.31L407.13 7.31L407.13 7.31Q407.12 6.66 407.11 6.38L407.11 6.38L407.11 6.38Q407.11 6.09 407.11 6.02L407.11 6.02L407.11 5.92L407.11 5.92Q407.11 5.45 407.04 5.11L407.04 5.11L407.04 5.11Q406.98 4.77 406.90 4.59L406.90 4.59L406.90 4.59Q406.81 4.41 406.65 4.28L406.65 4.28L406.65 4.28Q406.49 4.16 406.38 4.12L406.38 4.12L406.38 4.12Q406.27 4.09 406.06 4.05L406.06 4.05L406.06 4.05Q405.85 4.00 405.76 3.98L405.76 3.98L405.76 3.98Q405.48 3.89 405.48 3.74L405.48 3.74L405.48 3.74Q405.48 3.53 405.75 3.53L405.75 3.53L405.75 3.53Q405.83 3.53 406.42 3.54L406.42 3.54L406.42 3.54Q407.01 3.54 407.08 3.54L407.08 3.54L407.08 3.54Q407.41 3.54 407.83 3.53L407.83 3.53L407.83 3.53Q408.24 3.51 408.34 3.51L408.34 3.51L408.34 3.51Q408.58 3.51 408.67 3.56L408.67 3.56L408.67 3.56Q408.76 3.61 408.76 3.75L408.76 3.75L408.76 3.75Q408.76 3.81 408.68 3.86L408.68 3.86L408.68 3.86Q408.60 3.91 408.52 3.94L408.52 3.94L408.52 3.94Q408.44 3.98 408.35 4.00L408.35 4.00L408.27 4.03L408.27 4.03Q407.81 4.28 407.81 5.61L407.81 5.61L407.81 6.15L407.81 6.15Q407.81 7.21 407.73 9.83L407.73 9.83L407.73 9.83Q407.65 12.46 407.65 13.08L407.65 13.08L407.65 13.36L407.65 13.36Q407.65 13.68 407.46 13.68L407.46 13.68L407.46 13.68Q407.33 13.68 407.23 13.58L407.23 13.58L407.23 13.58Q402.58 8.19 401.68 7.17L401.68 7.17L401.68 7.17Q400.78 6.16 400.68 6.16L400.68 6.16L400.68 6.16Q400.54 6.16 400.54 7.11L400.54 7.11L400.54 7.11Q400.54 8.44 400.48 9.97L400.48 9.97L400.48 9.97Q400.43 11.51 400.43 11.65L400.43 11.65L400.43 11.65Q400.43 12.28 400.65 12.61L400.65 12.61L400.65 12.61Q400.86 12.94 401.11 12.98L401.11 12.98L401.11 12.98Q401.37 13.02 401.58 13.07L401.58 13.07L401.58 13.07Q401.80 13.12 401.80 13.26L401.80 13.26L401.80 13.26Q401.80 13.41 401.75 13.45L401.75 13.45L401.75 13.45Q401.70 13.50 401.58 13.50L401.58 13.50L401.58 13.50Q401.48 13.50 401.14 13.48L401.14 13.48L401.14 13.48Q400.79 13.47 400.08 13.47L400.08 13.47L400.08 13.47Q399.95 13.47 399.56 13.48L399.56 13.48L399.56 13.48Q399.17 13.50 398.89 13.50L398.89 13.50L398.89 13.50Q398.58 13.50 398.58 13.27L398.58 13.27L398.58 13.27Q398.58 13.15 398.76 13.11L398.76 13.11L398.76 13.11Q398.94 13.08 399.21 12.89L399.21 12.89L399.21 12.89Q399.48 12.71 399.62 12.21L399.62 12.21L399.62 12.21Q399.70 11.89 399.83 9.60L399.83 9.60L399.83 9.60Q399.95 7.32 399.95 6.45L399.95 6.45L399.95 6.45Q399.95 5.25 399.62 4.65L399.62 4.65L399.62 4.65Q399.28 4.06 398.52 3.98L398.52 3.98L398.52 3.98Q398.34 3.96 398.34 3.77ZM416.51 3.65L416.51 3.65L416.51 3.65Q416.51 3.46 416.91 3.46L416.91 3.46L416.91 3.46Q416.96 3.46 417.09 3.47L417.09 3.47L417.09 3.47Q417.21 3.49 417.28 3.49L417.28 3.49L417.28 3.49Q417.33 3.49 418.60 3.52L418.60 3.52L418.60 3.52Q419.87 3.56 420.70 3.56L420.70 3.56L420.70 3.56Q420.99 3.56 422.15 3.53L422.15 3.53L422.15 3.53Q423.30 3.50 423.50 3.50L423.50 3.50L423.50 3.50Q423.77 3.50 423.77 3.82L423.77 3.82L423.77 3.82Q423.77 3.91 423.68 4.38L423.68 4.38L423.68 4.38Q423.60 4.84 423.60 5.25L423.60 5.25L423.60 5.25Q423.60 5.38 423.53 5.47L423.53 5.47L423.53 5.47Q423.46 5.56 423.37 5.56L423.37 5.56L423.37 5.56Q423.16 5.56 423.16 5.26L423.16 5.26L423.16 5.26Q423.16 4.89 422.93 4.58L422.93 4.58L422.93 4.58Q422.69 4.27 422.34 4.26L422.34 4.26L422.34 4.26Q421.08 4.16 420.41 4.16L420.41 4.16L420.04 4.16L420.04 4.16Q419.31 4.16 419.20 4.26L419.20 4.26L419.20 4.26Q419.08 4.37 419.05 5.01L419.05 5.01L419.05 5.01Q418.99 6.02 418.99 7.35L418.99 7.35L418.99 7.35Q418.99 8.05 419.26 8.06L419.26 8.06L419.61 8.06L420.20 8.06L420.63 8.06L420.63 8.06Q421.47 8.06 421.75 8.01L421.75 8.01L421.75 8.01Q422.03 7.95 422.25 7.80L422.25 7.80L422.25 7.80Q422.52 7.62 422.58 7.28L422.58 7.28L422.58 7.28Q422.62 7.04 422.77 7.04L422.77 7.04L422.77 7.04Q422.90 7.04 422.93 7.08L422.93 7.08L422.93 7.08Q422.95 7.13 422.95 7.27L422.95 7.27L422.95 7.27Q422.95 7.36 422.90 7.91L422.90 7.91L422.90 7.91Q422.84 8.46 422.84 8.74L422.84 8.74L422.84 8.74Q422.84 9.00 422.86 9.24L422.86 9.24L422.86 9.24Q422.88 9.48 422.88 9.59L422.88 9.59L422.88 9.59Q422.88 9.94 422.79 9.94L422.79 9.94L422.79 9.94Q422.58 9.94 422.48 9.60L422.48 9.60L422.48 9.60Q422.28 9.02 422.13 8.92L422.13 8.92L422.13 8.92Q421.83 8.72 420.78 8.72L420.78 8.72L420.78 8.72Q420.36 8.72 420.11 8.72L420.11 8.72L420.11 8.72Q419.85 8.72 419.77 8.71L419.77 8.71L419.77 8.71Q419.69 8.71 419.64 8.71L419.64 8.71L419.64 8.71Q419.59 8.71 419.55 8.71L419.55 8.71L419.55 8.71Q418.98 8.71 418.98 8.97L418.98 8.97L418.98 8.97Q418.98 9.38 418.96 9.99L418.96 9.99L418.96 9.99Q418.95 10.60 418.95 10.99L418.95 10.99L418.95 11.55L418.95 11.55Q418.95 12.56 419.29 12.66L419.29 12.66L419.29 12.66Q419.64 12.77 419.89 12.77L419.89 12.77L419.89 12.77Q420.94 12.77 421.73 12.67L421.73 12.67L421.73 12.67Q422.52 12.57 422.92 12.42L422.92 12.42L422.92 12.42Q423.32 12.28 423.58 12.10L423.58 12.10L423.58 12.10Q423.85 11.93 423.93 11.78L423.93 11.78L423.93 11.78Q424.00 11.63 424.08 11.54L424.08 11.54L424.08 11.54Q424.16 11.44 424.24 11.44L424.24 11.44L424.24 11.44Q424.41 11.44 424.41 11.68L424.41 11.68L424.41 11.68Q424.41 12.28 423.81 12.89L423.81 12.89L423.81 12.89Q423.21 13.51 422.76 13.51L422.76 13.51L422.76 13.51Q421.75 13.51 420.48 13.44L420.48 13.44L420.48 13.44Q419.22 13.37 418.91 13.37L418.91 13.37L418.91 13.37Q418.52 13.37 417.93 13.43L417.93 13.43L417.93 13.43Q417.34 13.50 417.00 13.50L417.00 13.50L417.00 13.50Q416.71 13.50 416.71 13.36L416.71 13.36L416.71 13.36Q416.71 13.23 416.71 13.19L416.71 13.19L416.71 13.19Q416.71 13.15 416.75 13.12L416.75 13.12L416.75 13.12Q416.79 13.09 416.84 13.08L416.84 13.08L416.84 13.08Q416.89 13.08 417.03 13.03L417.03 13.03L417.03 13.03Q417.16 12.99 417.31 12.92L417.31 12.92L417.31 12.92Q417.65 12.75 417.75 12.26L417.75 12.26L417.75 12.26Q417.86 11.77 417.86 10.21L417.86 10.21L417.86 8.47L417.86 8.47Q417.86 8.09 417.88 7.29L417.88 7.29L417.88 7.29Q417.90 6.50 417.90 6.05L417.90 6.05L417.90 6.05Q417.90 5.67 417.87 4.77L417.87 4.77L417.87 4.77Q417.86 4.37 417.52 4.14L417.52 4.14L417.52 4.14Q417.19 3.92 416.74 3.91L416.74 3.91L416.74 3.91Q416.51 3.91 416.51 3.65Z"></path></g></svg>