<svg data-v-fde0c5aa="" xmlns="http://www.w3.org/2000/svg" viewBox="0 0 300 300" class="font"><!----><defs data-v-fde0c5aa=""><linearGradient data-v-fde0c5aa="" gradientTransform="rotate(25)" id="f6bb522c-2257-4de8-b0d5-b76dee0f8da7" x1="0%" y1="0%" x2="100%" y2="0%"><stop data-v-fde0c5aa="" offset="0%" stop-color="#4B279B" stop-opacity="1"></stop><stop data-v-fde0c5aa="" offset="100%" stop-color="#DF99D8" stop-opacity="1"></stop></linearGradient></defs><rect data-v-fde0c5aa="" fill="url(#f6bb522c-2257-4de8-b0d5-b76dee0f8da7)" x="0" y="0" width="300px" height="300px" class="logo-background-square"></rect><defs data-v-fde0c5aa=""><!----></defs><g data-v-fde0c5aa="" id="1b0d7d11-7e4c-404c-aff0-c421b05a2a8c" fill="#ffffff" transform="matrix(3.3608310888624007,0,0,3.3608310888624007,38.35319273440604,122.57173980908799)"><path d="M1.54 3.66L0.49 4.27L0.49 12.71L1.73 12.26L1.74 8.48L3.70 8.48L4.63 7.20L1.78 7.20L1.78 4.85L4.87 4.86L5.79 3.66L1.54 3.66ZM7.60 6.43L7.60 6.43L7.60 6.43Q6.69 6.36 5.67 6.88L5.67 6.88L5.67 6.88Q4.66 7.40 4.78 8.65L4.78 8.65L6.34 7.95L6.34 7.95Q6.23 7.10 6.97 6.96L6.97 6.96L6.97 6.96Q7.72 6.82 8.13 7.21L8.13 7.21L8.13 7.21Q8.55 7.61 8.49 8.80L8.49 8.80L8.49 8.80Q8.03 8.50 7.41 8.42L7.41 8.42L7.41 8.42Q6.79 8.33 5.78 8.85L5.78 8.85L5.78 8.85Q4.77 9.37 4.52 10.38L4.52 10.38L4.52 10.38Q4.27 11.38 5.05 12.06L5.05 12.06L5.05 12.06Q5.82 12.73 6.55 12.70L6.55 12.70L6.55 12.70Q7.27 12.67 7.64 12.39L7.64 12.39L7.64 12.39Q8.00 12.10 8.51 11.57L8.51 11.57L8.51 11.57Q8.50 12.44 8.71 12.76L8.71 12.76L10.06 12.04L10.06 12.04Q9.72 11.63 9.79 11.02L9.79 11.02L9.79 8.16L9.79 8.16Q9.82 7.49 9.17 6.99L9.17 6.99L9.17 6.99Q8.52 6.50 7.60 6.43ZM8.54 9.32L8.52 9.68L8.52 11.18L8.52 11.18Q7.36 12.11 6.42 11.55L6.42 11.55L6.42 11.55Q5.47 10.99 5.34 10.16L5.34 10.16L5.34 10.16Q5.22 9.34 6.16 9.31L6.16 9.31L6.16 9.31Q7.11 9.28 7.91 10.00L7.91 10.00L8.54 9.32ZM13.56 11.03L11.47 6.44L10.34 7.03L12.77 12.74L13.97 11.98L13.86 11.65L15.80 6.64L15.33 6.47L13.56 11.03ZM19.27 6.48L19.27 6.48L19.27 6.48Q18.16 6.51 17.45 7.03L17.45 7.03L17.45 7.03Q16.74 7.55 16.42 8.19L16.42 8.19L16.42 8.19Q16.10 8.84 16.07 9.76L16.07 9.76L16.07 9.76Q16.05 10.68 16.74 11.62L16.74 11.62L16.74 11.62Q17.43 12.56 18.44 12.71L18.44 12.71L18.44 12.71Q19.45 12.85 20.31 12.33L20.31 12.33L20.31 12.33Q21.16 11.80 21.60 11.12L21.60 11.12L21.60 11.12Q22.04 10.45 22.06 9.35L22.06 9.35L22.06 9.35Q22.07 8.26 21.23 7.36L21.23 7.36L21.23 7.36Q20.38 6.46 19.27 6.48ZM18.97 7.44L18.97 7.44L18.97 7.44Q20.02 7.82 20.44 8.91L20.44 8.91L20.44 8.91Q20.87 9.99 20.82 10.67L20.82 10.67L20.82 10.67Q20.76 11.34 20.19 11.71L20.19 11.71L20.19 11.71Q19.62 12.08 18.67 11.56L18.67 11.56L18.67 11.56Q17.73 11.05 17.42 9.91L17.42 9.91L17.42 9.91Q17.12 8.77 17.52 7.92L17.52 7.92L17.52 7.92Q17.93 7.07 18.97 7.44ZM26.63 12.70L27.89 12.19L27.89 6.49L26.56 7.03L26.56 11.16L26.56 11.16Q26.06 11.79 25.20 11.74L25.20 11.74L25.20 11.74Q24.34 11.69 24.25 10.73L24.25 10.73L24.26 6.51L22.96 7.17L22.96 10.96L22.96 10.96Q22.96 11.91 23.63 12.35L23.63 12.35L23.63 12.35Q24.29 12.80 24.91 12.68L24.91 12.68L24.91 12.68Q25.54 12.56 26.63 11.48L26.63 11.48L26.63 12.70ZM30.17 6.51L28.90 7.03L28.90 12.73L30.22 12.12L30.22 8.05L30.22 8.05Q30.86 7.22 31.45 7.37L31.45 7.37L31.45 7.37Q32.04 7.53 32.12 8.26L32.12 8.26L33.35 7.46L33.35 7.46Q33.21 6.62 32.19 6.50L32.19 6.50L32.19 6.50Q31.18 6.38 30.16 7.73L30.16 7.73L30.17 6.51ZM40.07 3.60L40.07 3.60L40.07 3.60Q39.45 3.74 38.93 4.17L38.93 4.17L38.93 4.17Q38.40 4.59 38.04 5.07L38.04 5.07L38.04 5.07Q37.68 5.54 37.66 6.29L37.66 6.29L37.66 6.29Q37.64 7.04 38.14 7.59L38.14 7.59L38.14 7.59Q38.65 8.14 40.09 8.56L40.09 8.56L40.09 8.56Q41.52 8.98 41.92 9.73L41.92 9.73L41.92 9.73Q42.32 10.49 41.85 11.05L41.85 11.05L41.85 11.05Q41.37 11.60 40.56 11.64L40.56 11.64L40.56 11.64Q39.76 11.68 39.07 11.15L39.07 11.15L39.07 11.15Q38.39 10.62 38.20 9.95L38.20 9.95L38.20 9.95Q38.01 9.27 38.03 8.95L38.03 8.95L36.97 9.98L36.97 9.98Q36.83 10.52 37.30 11.21L37.30 11.21L37.30 11.21Q37.76 11.91 38.59 12.37L38.59 12.37L38.59 12.37Q39.42 12.84 40.41 12.71L40.41 12.71L40.41 12.71Q41.41 12.59 42.30 11.34L42.30 11.34L42.30 11.34Q43.19 10.09 43.17 9.38L43.17 9.38L43.17 9.38Q43.16 8.66 42.63 8.12L42.63 8.12L42.63 8.12Q42.10 7.58 40.56 7.17L40.56 7.17L40.56 7.17Q39.03 6.76 38.88 5.92L38.88 5.92L38.88 5.92Q38.73 5.08 39.34 4.85L39.34 4.85L39.34 4.85Q39.96 4.61 40.76 4.96L40.76 4.96L40.76 4.96Q41.56 5.30 41.59 5.68L41.59 5.68L42.53 4.92L42.53 4.92Q42.36 4.22 41.52 3.84L41.52 3.84L41.52 3.84Q40.69 3.46 40.07 3.60ZM45.96 4.44L44.72 4.94L44.72 6.84L44.43 6.84L43.28 7.86L44.71 7.86L44.64 10.19L44.64 10.19Q44.65 11.87 45.52 12.42L45.52 12.42L45.52 12.42Q46.40 12.97 47.29 12.56L47.29 12.56L47.29 12.56Q48.19 12.15 48.51 11.09L48.51 11.09L48.41 10.93L48.41 10.93Q47.52 12.06 46.64 11.64L46.64 11.64L46.64 11.64Q45.77 11.22 45.92 9.78L45.92 9.78L45.96 7.85L46.81 7.85L48.88 6.79L45.95 6.79L45.96 4.44ZM52.31 6.48L52.31 6.48L52.31 6.48Q51.19 6.51 50.49 7.03L50.49 7.03L50.49 7.03Q49.78 7.55 49.46 8.19L49.46 8.19L49.46 8.19Q49.14 8.84 49.11 9.76L49.11 9.76L49.11 9.76Q49.09 10.68 49.78 11.62L49.78 11.62L49.78 11.62Q50.47 12.56 51.48 12.71L51.48 12.71L51.48 12.71Q52.49 12.85 53.34 12.33L53.34 12.33L53.34 12.33Q54.20 11.80 54.64 11.12L54.64 11.12L54.64 11.12Q55.08 10.45 55.09 9.35L55.09 9.35L55.09 9.35Q55.11 8.26 54.27 7.36L54.27 7.36L54.27 7.36Q53.42 6.46 52.31 6.48ZM52.01 7.44L52.01 7.44L52.01 7.44Q53.05 7.82 53.48 8.91L53.48 8.91L53.48 8.91Q53.91 9.99 53.85 10.67L53.85 10.67L53.85 10.67Q53.80 11.34 53.23 11.71L53.23 11.71L53.23 11.71Q52.66 12.08 51.71 11.56L51.71 11.56L51.71 11.56Q50.76 11.05 50.46 9.91L50.46 9.91L50.46 9.91Q50.16 8.77 50.56 7.92L50.56 7.92L50.56 7.92Q50.97 7.07 52.01 7.44ZM57.21 6.51L55.94 7.03L55.94 12.73L57.26 12.12L57.26 8.05L57.26 8.05Q57.91 7.22 58.50 7.37L58.50 7.37L58.50 7.37Q59.08 7.53 59.16 8.26L59.16 8.26L60.39 7.46L60.39 7.46Q60.25 6.62 59.24 6.50L59.24 6.50L59.24 6.50Q58.22 6.38 57.20 7.73L57.20 7.73L57.21 6.51ZM64.00 6.51L64.00 6.51L64.00 6.51Q62.92 6.35 61.98 7.19L61.98 7.19L61.98 7.19Q61.04 8.03 60.77 9.15L60.77 9.15L60.77 9.15Q60.51 10.27 60.86 11.09L60.86 11.09L60.86 11.09Q61.21 11.91 61.79 12.28L61.79 12.28L61.79 12.28Q62.37 12.66 63.16 12.71L63.16 12.71L63.16 12.71Q63.96 12.76 64.73 12.08L64.73 12.08L64.73 12.08Q65.50 11.41 65.95 10.54L65.95 10.54L65.86 10.47L65.86 10.47Q64.80 11.57 63.73 11.52L63.73 11.52L63.73 11.52Q62.65 11.47 62.31 10.85L62.31 10.85L64.25 9.78L64.25 9.78Q65.70 8.81 65.39 7.75L65.39 7.75L65.39 7.75Q65.08 6.68 64.00 6.51ZM61.78 8.16L61.78 8.16L61.78 8.16Q62.02 7.66 62.63 7.40L62.63 7.40L62.63 7.40Q63.25 7.14 63.79 7.68L63.79 7.68L63.79 7.68Q64.34 8.21 64.17 8.90L64.17 8.90L64.17 8.90Q64.00 9.60 62.10 10.57L62.10 10.57L62.10 10.57Q61.79 10.04 61.67 9.35L61.67 9.35L61.67 9.35Q61.54 8.67 61.78 8.16Z"></path></g><!----><!----></svg>